<svg width="52" height="52" viewBox="0 0 52 52" fill="none" xmlns="http://www.w3.org/2000/svg">
<path d="M26 52C11.663 52 0 40.336 0 26C0 11.664 11.663 0 26 0C40.337 0 52 11.664 52 26C52 40.336 40.337 52 26 52ZM26 2C12.767 2 2 12.767 2 26C2 39.233 12.767 50 26 50C39.233 50 50 39.233 50 26C50 12.767 39.233 2 26 2Z" fill="#9DA4FF"/>
<path fill-rule="evenodd" clip-rule="evenodd" d="M16.0714 10L18.4286 16.9231V21.5385H20V16.9231L22.3571 10H20.7857L19.2143 14.6154L17.6429 10H16.0714ZM24.7143 13.0769C23.8764 13.0769 23.4651 13.2061 22.9526 13.6178C22.4615 14.0234 22.3265 14.3359 22.3571 15.3846V19.2308C22.3571 19.997 22.486 20.5018 22.9587 20.9495C23.4498 21.3972 23.9132 21.5385 24.7143 21.5385C25.5522 21.5385 26.0095 21.3972 26.4821 20.9495C26.9732 20.5198 27.0714 19.997 27.0714 19.2308V15.3846C27.0714 14.7055 26.9487 14.0625 26.4729 13.6328C25.9819 13.1911 25.4754 13.0769 24.7143 13.0769ZM28.6429 13.0769V20C28.6429 20.7482 29.4132 21.5385 30.2143 21.5385C31.0153 21.5385 31.4389 21.1448 31.7857 20.7692V21.5385H33.3571V13.0769H31.7857V19.2308C31.7765 19.7566 31.1443 20 31 20C30.8373 20 30.2143 19.9669 30.2143 19.2308V13.0769H28.6429ZM24.7143 14.6154C24.9506 14.6154 25.5 14.6124 25.5 15.3846V19.2308C25.5 19.976 24.969 20 24.7143 20C24.478 20 23.9286 19.991 23.9286 19.2308V15.3846C23.9286 14.7566 24.2693 14.6154 24.7143 14.6154ZM13.7143 23.0769C10.8906 23.0769 9 24.9099 9 27.6923V35C9 37.7825 10.8906 40 13.7143 40H37.2857C40.1094 40 42 38.1671 42 35.3846V27.6923C42 24.9099 40.1094 23.0769 37.2857 23.0769H13.7143ZM15.2857 26.1538H20V27.6923H18.4286V36.9231H16.8571V27.6923H15.2857V26.1538ZM26.2857 26.1538H27.8571V29.2308C28.0382 28.9543 28.3083 28.735 28.5661 28.6118C28.8178 28.4856 29.0725 28.4135 29.3304 28.4135C29.8398 28.4135 30.2388 28.5938 30.512 28.9303C30.7852 29.2698 31 29.7206 31 30.3846V35C31 35.5709 30.8036 35.9255 30.5458 36.229C30.2941 36.5325 29.9166 36.9171 29.4286 36.9231C28.603 36.9321 28.161 36.4994 27.8571 36.1538V36.9231H26.2857V26.1538ZM20 28.4615H21.5714V34.6154C21.5714 34.7927 21.7832 35.3906 22.3571 35.3846C22.9955 35.3786 23.0017 34.7957 23.1429 34.6154V28.4615H24.7143V36.9231H23.1429V36.1538C22.8513 36.4904 22.7009 36.5956 22.3725 36.7548C22.0472 36.9351 21.7157 36.9231 21.4088 36.9231C21.0282 36.9231 20.5954 36.5865 20.3929 36.3341C20.2118 36.1028 20 35.8654 20 35.3846V28.4615ZM34.2994 28.4615C35.0452 28.4615 35.57 28.6178 35.966 29.0264C36.3711 29.4351 36.5 29.9129 36.5 30.6821V33.0769H33.3571V34.2668C33.3571 34.6965 33.4155 34.97 33.529 35.1322C33.6364 35.3095 33.8544 35.3876 34.1429 35.3846C34.4621 35.3816 34.6646 35.3185 34.772 35.1773C34.8825 35.0511 34.9286 34.6935 34.9286 34.2308V33.8462H36.5V34.3029C36.5 35.1412 36.4325 35.7662 36.0089 36.1749C35.6099 36.6046 34.9869 36.8029 34.1705 36.8029C33.4247 36.8029 32.8415 36.5865 32.4241 36.1418C32.0067 35.6971 31.7888 35.0871 31.7888 34.3029V30.6821C31.7888 29.985 32.0374 29.4681 32.4947 29.0084C32.863 28.6388 33.5536 28.4615 34.2994 28.4615ZM28.6429 29.6154C28.2101 29.6154 27.8633 29.997 27.8571 30.3846V35C27.8633 35.2224 28.2101 35.3846 28.6429 35.3846C29.0756 35.3846 29.4286 35.0571 29.4286 34.6334V30.7692C29.4286 30 29.0756 29.6154 28.6429 29.6154ZM34.1429 30C33.7101 30 33.3633 30.3576 33.3571 30.7692V31.5385H34.9286V30.7692C34.9286 30.2975 34.5756 30 34.1429 30Z" fill="#9DA4FF"/>
</svg>
