<svg xmlns="http://www.w3.org/2000/svg">

    <!--  Logo  -->
    <g id="logo-davys">
        <path fill="black" fill-rule="evenodd" clip-rule="evenodd"
              d="M39.5071 8.91905C39.5071 10.6015 39.0571 12.3966 38.1572 14.311C37.2573 16.2232 36.0581 18.1241 34.5597 20.0138C33.0636 21.9012 31.3469 23.7053 29.4121 25.4238C27.4772 27.1423 25.4816 28.6581 23.423 29.9734C21.3667 31.2887 19.3216 32.336 17.29 33.1176C15.2584 33.8969 13.4023 34.2865 11.7216 34.2865C11.2109 34.2865 10.7182 34.2009 10.2435 34.0298C9.76878 33.8586 9.53255 33.4689 9.53255 32.8608C9.53255 32.3248 9.72829 31.8248 10.1175 31.3631C10.5067 30.8991 11.0062 30.4802 11.6136 30.1018C12.2211 29.7234 12.9231 29.3946 13.7127 29.1153C14.5047 28.836 15.2899 28.5905 16.0683 28.3833C16.8468 28.1761 17.6027 28.0184 18.3317 27.9081C19.0628 27.7977 19.6816 27.7324 20.1945 27.7076C20.487 27.7076 20.6332 27.7932 20.6332 27.9644C20.6332 28.0612 20.5477 28.122 20.3768 28.1468C20.3048 28.1468 20.0123 28.1783 19.5016 28.2391C18.9909 28.3 18.3632 28.3968 17.6207 28.5319C16.8783 28.6671 16.0931 28.8495 15.2651 29.0792C14.4372 29.3112 13.6655 29.5973 12.9455 29.9374C12.2279 30.2775 11.6361 30.6739 11.1749 31.1243C10.7115 31.5748 10.482 32.0928 10.482 32.6784C10.482 33.0433 10.6395 33.3113 10.9567 33.4825C11.2739 33.6536 11.6744 33.7392 12.1626 33.7392C13.7195 33.7392 15.4361 33.3608 17.3102 32.6063C19.1843 31.8518 21.0652 30.827 22.9506 29.5365C24.8359 28.2459 26.6628 26.7639 28.4267 25.095C30.1905 23.426 31.7564 21.6782 33.1176 19.8494C34.481 18.0228 35.5766 16.1827 36.4046 14.329C37.2325 12.4777 37.6465 10.7231 37.6465 9.06544C37.6465 7.84696 37.3855 6.71406 36.8613 5.66675C36.3371 4.61944 35.4866 3.71177 34.3055 2.94374C33.1243 2.17571 31.5967 1.5721 29.7226 1.13515C27.8485 0.695958 25.5604 0.47749 22.8583 0.47749C21.9584 0.47749 20.7952 0.563073 19.3711 0.734247C17.9469 0.90542 16.4328 1.17795 14.8264 1.55633C13.22 1.93471 11.5956 2.41445 9.95102 3.00004C8.30864 3.58564 6.82825 4.2906 5.51434 5.11944C4.20044 5.94828 3.12952 6.89875 2.30158 7.97084C1.47364 9.04292 1.05967 10.2502 1.05967 11.5903C1.05967 11.9078 1.10917 12.1759 1.20591 12.3943C1.30265 12.6128 1.4129 12.7975 1.53439 12.9416C1.65588 13.088 1.76612 13.2097 1.86286 13.3065C1.95961 13.4033 2.0091 13.5024 2.0091 13.5993C2.0091 13.7457 1.93711 13.8178 1.79087 13.8178C1.4264 13.7457 1.12267 13.6353 0.877436 13.4889C0.659202 13.3673 0.456717 13.1714 0.27448 12.9033C0.0922435 12.6353 0 12.2817 0 11.8425C0 10.5024 0.389221 9.27716 1.16766 8.16904C1.94611 7.06092 2.97428 6.06766 4.25219 5.18926C5.53009 4.31313 6.98349 3.54961 8.61462 2.90545C10.2457 2.25905 11.9129 1.7185 13.616 1.2793C15.3191 0.840107 16.9863 0.518026 18.6174 0.310816C20.2485 0.103606 21.7087 0 22.9978 0C26.0171 0 28.5729 0.225228 30.6652 0.675685C32.7576 1.12614 34.463 1.75453 35.7769 2.5586C37.0908 3.36266 38.0402 4.30637 38.6252 5.39197C39.2146 6.47532 39.5071 7.65101 39.5071 8.91905ZM20.4465 24.9643C20.4465 24.3787 20.4398 23.5026 20.4285 22.3337C20.4173 21.1647 20.397 19.8539 20.3745 18.4034C20.3498 16.9529 20.3318 15.4372 20.3205 13.8538C20.3093 12.2704 20.289 10.7772 20.2665 9.37626C20.2418 7.97534 20.2238 6.72532 20.2125 5.63071C20.2013 4.53385 20.1945 3.7433 20.1945 3.25455C20.1945 2.81536 20.0123 2.59689 19.6478 2.59689C19.4768 2.59689 19.3126 2.62842 19.1551 2.68923C18.9976 2.75004 18.9189 2.9505 18.9189 3.29285L19.2473 25.6986C19.2473 25.9666 19.2901 26.1558 19.3756 26.2661C19.4611 26.3765 19.5758 26.4553 19.7221 26.5026C19.9178 26.5026 20.0865 26.3923 20.2328 26.1738C20.3745 25.9508 20.4465 25.5499 20.4465 24.9643ZM50.2343 22.1873C50.2343 21.8224 50.1736 21.5228 50.0521 21.2908C49.9306 21.0589 49.7348 20.944 49.4671 20.944C49.0531 20.944 48.7359 21.1444 48.5177 21.5476C48.2995 21.9508 48.2005 22.4553 48.2252 23.0634C48.2972 24.354 48.5289 25.4396 48.9182 26.3157C49.3321 25.7549 49.6539 25.122 49.8856 24.4148C50.1196 23.7098 50.2343 22.9665 50.2343 22.1873ZM60.0931 22.1512L59.4001 21.9688C59.2044 22.3584 59.0109 22.7481 58.8152 23.1377C58.6194 23.5274 58.4012 23.9057 58.1582 24.2706C57.1368 25.7571 56.0951 26.89 55.0355 27.6693C53.9758 28.4486 52.9836 28.8382 52.0589 28.8382C50.8418 28.8382 49.8923 28.2054 49.2106 26.9373C49.6966 26.2797 50.0858 25.5432 50.3783 24.7256C50.6708 23.9103 50.817 22.9891 50.817 21.9665C50.817 20.944 50.3783 20.4305 49.5031 20.4305C48.8709 20.4305 48.3827 20.7706 48.043 21.453C47.7032 22.1354 47.5323 22.9395 47.5323 23.8652C47.5323 25.2796 47.728 26.4238 48.1172 27.2999C47.4108 28.0545 46.6076 28.64 45.7076 29.0545C44.8077 29.4689 43.9438 29.6761 43.1158 29.6761C42.0944 29.6761 41.2417 29.3473 40.56 28.6896C39.8783 28.0319 39.5386 26.9711 39.5386 25.5094C39.5386 24.7549 39.6848 23.9868 39.9773 23.2075C40.2698 22.4282 40.6838 21.7143 41.2192 21.0701C41.7547 20.4237 42.4049 19.9012 43.1721 19.498C43.9393 19.0949 44.7965 18.8944 45.7459 18.8944C46.4523 18.8944 46.9878 18.9732 47.3523 19.1309C47.7167 19.2886 48.0452 19.5025 48.3377 19.7706H48.3737C48.3984 19.7706 48.4232 19.7818 48.4457 19.8066C48.5177 19.8066 48.6032 19.7818 48.7022 19.7345C48.7989 19.685 48.8484 19.6129 48.8484 19.516C48.8484 19.2976 48.5919 19.0588 48.0812 18.8043C47.5705 18.5476 46.8528 18.4214 45.9281 18.4214C44.7852 18.4214 43.7255 18.6647 42.7514 19.1534C41.7772 19.6399 40.9312 20.257 40.2135 21.0003C39.4958 21.7436 38.9356 22.5724 38.5329 23.4868C38.1302 24.4013 37.93 25.2954 37.93 26.1738C37.93 26.9058 38.0515 27.5454 38.2944 28.0927C38.5374 28.64 38.8614 29.0928 39.2619 29.4441C39.6646 29.7977 40.1393 30.059 40.686 30.2302C41.2327 30.4013 41.8109 30.4869 42.4206 30.4869C43.4421 30.4869 44.4837 30.2684 45.5434 29.8293C46.6031 29.3901 47.557 28.7459 48.4097 27.8923C49.1409 29.2076 50.1983 29.8653 51.5865 29.8653C52.6821 29.8653 53.8633 29.4148 55.1277 28.5139C56.3944 27.613 57.6475 26.2346 58.8894 24.3832C59.1324 24.0184 59.3529 23.6467 59.5464 23.2684C59.7399 22.8877 59.9221 22.5161 60.0931 22.1512ZM68.1565 23.7954C68.1565 23.381 68.1137 22.9846 68.0283 22.6084C67.9428 22.23 67.8393 21.9012 67.7178 21.6219C67.5963 21.3426 67.4613 21.1174 67.3151 20.9462C67.1688 20.7751 67.0473 20.6895 66.9506 20.6895C66.7323 20.6895 66.6221 20.9688 66.6221 21.5296C66.6221 22.1625 66.7571 22.7301 67.0248 23.2301C67.2926 23.7301 67.657 24.149 68.1205 24.4913C68.1452 24.4418 68.1565 24.3562 68.1565 24.2346V23.7954ZM75.239 21.8584C74.6788 23.3945 73.9498 24.4891 73.0476 25.149C72.1477 25.8067 71.2343 26.1355 70.3096 26.1355C69.7246 26.1355 69.1419 26.0139 68.557 25.7706C68.2892 26.4035 67.954 27.0139 67.5535 27.5972C67.1508 28.1828 66.7143 28.6941 66.2396 29.1333C65.7649 29.5725 65.2655 29.9261 64.7435 30.1941C64.2193 30.4621 63.6906 30.5973 63.1551 30.5973C62.5229 30.5973 62.0122 30.2437 61.6207 29.5365C61.2315 28.8292 60.9143 27.9711 60.6713 26.9598C60.4283 25.9486 60.2641 24.8832 60.1786 23.7616C60.0931 22.64 60.0503 21.667 60.0503 20.8381C60.0503 20.498 60.1178 20.2953 60.2506 20.2345C60.3856 20.1737 60.6105 20.1422 60.9255 20.1422C61.1933 20.1422 61.3575 20.2458 61.4182 20.453C61.479 20.6602 61.5105 20.7998 61.5105 20.8742C61.5105 21.5318 61.5285 22.3607 61.5645 23.3607C61.6005 24.3607 61.6927 25.3224 61.839 26.2481C61.9852 27.1738 62.1922 27.9711 62.4599 28.6423C62.7276 29.3112 63.1056 29.6468 63.5916 29.6468C64.127 29.6468 64.6265 29.5252 65.0877 29.2819C65.5512 29.0387 65.9697 28.7211 66.3476 28.3315C66.7256 27.9418 67.0473 27.4914 67.3151 26.9801C67.5828 26.4688 67.7898 25.9441 67.936 25.408C67.3286 25.0184 66.8336 24.5116 66.4579 23.8922C66.0821 23.2729 65.8909 22.5701 65.8909 21.7908C65.8909 21.0116 66.0124 20.444 66.2554 20.0904C66.4984 19.7368 66.7908 19.5611 67.1328 19.5611C67.6188 19.5611 68.0935 19.8584 68.557 20.4575C69.0204 21.0544 69.2499 21.8156 69.2499 22.7413C69.2499 23.4733 69.1284 24.2031 68.8854 24.935C69.3962 25.131 69.8844 25.2278 70.3456 25.2278C71.1488 25.2278 71.9452 24.9418 72.7372 24.3697C73.5291 23.7976 74.1681 22.8292 74.654 21.4643L75.239 21.8584ZM88.414 44.9961C88.414 44.3137 88.3173 43.5276 88.1215 42.638C87.9258 41.7483 87.6828 40.7911 87.3903 39.7686C87.0979 38.746 86.7761 37.674 86.4229 36.5523C86.0697 35.4307 85.7345 34.2978 85.4195 33.1536C84.4205 34.2753 83.4846 35.3406 82.6072 36.3519C81.7297 37.3631 80.9693 38.3924 80.3259 39.4398C79.6802 40.4871 79.1694 41.5839 78.7915 42.7303C78.4135 43.8767 78.2245 45.1425 78.2245 46.5322C78.2245 47.2867 78.3775 47.9759 78.6812 48.5975C78.985 49.2192 79.3922 49.7552 79.9051 50.2057C80.4158 50.6561 80.9873 51.0097 81.6218 51.2665C82.254 51.5233 82.8997 51.6494 83.5566 51.6494C84.1641 51.6494 84.7625 51.5278 85.3452 51.2845C85.9302 51.0413 86.4522 50.6516 86.9156 50.1156C87.3791 49.5795 87.7436 48.8903 88.0113 48.0502C88.279 47.2056 88.414 46.1898 88.414 44.9961ZM93.5256 22.1512L92.8327 21.9688C92.6369 22.3584 92.4367 22.7413 92.2297 23.1197C92.0227 23.4981 91.809 23.881 91.5908 24.2706C90.8596 25.586 90.0271 26.8112 89.089 27.9441C88.1508 29.077 87.1721 30.1919 86.1507 31.2887C85.8829 30.3135 85.6512 29.309 85.4577 28.2729C85.262 27.2369 85.2012 26.1355 85.2755 24.9643L85.4937 21.0544C85.5185 20.7368 85.451 20.4868 85.2935 20.3043C85.136 20.1219 84.9583 20.0183 84.7648 19.9935C84.569 19.9935 84.3576 20.1152 84.1258 20.3584C83.8941 20.6016 83.7794 21.1872 83.7794 22.1129C83.8041 22.5994 83.8221 23.0566 83.8333 23.4846C83.8446 23.9103 83.8761 24.2819 83.9256 24.5994C83.9503 24.9643 83.9863 25.2932 84.0358 25.5859C83.8896 26.2684 83.6579 26.854 83.3429 27.3405C83.0752 27.7797 82.7107 28.1873 82.2472 28.5657C81.7837 28.9441 81.1763 29.1333 80.4226 29.1333C79.4732 29.1333 78.7307 28.8112 78.1953 28.1648C77.6598 27.5184 77.2571 26.7391 76.9893 25.8247C76.7216 24.9103 76.5574 23.9418 76.4966 22.9192C76.4359 21.8967 76.4044 21.0183 76.4044 20.2886C76.4044 20.0701 76.3189 19.9597 76.1479 19.9597C75.9769 19.9597 75.7879 20.0566 75.581 20.2525C75.374 20.4485 75.2592 20.6557 75.2345 20.8742C75.2097 20.9958 75.1985 21.1535 75.1985 21.3494C75.1985 21.5454 75.1985 21.7638 75.1985 22.0071C75.1985 22.7143 75.248 23.5431 75.3447 24.4936C75.4415 25.4441 75.6484 26.3585 75.9657 27.2346C76.2829 28.113 76.7261 28.854 77.2976 29.4644C77.869 30.0748 78.6295 30.3788 79.5789 30.3788C80.3821 30.3788 81.0705 30.1964 81.642 29.8315C82.2135 29.4666 82.6949 29.0522 83.0842 28.5882C83.4734 28.1243 83.7659 27.6806 83.9616 27.2549C84.1573 26.8292 84.2653 26.5544 84.2901 26.4328C84.2901 27.3337 84.3756 28.2797 84.5465 29.2662C84.7175 30.2527 84.9358 31.2707 85.2035 32.318C84.1573 33.4397 83.1404 34.5658 82.155 35.6987C81.1695 36.8316 80.2921 38.0005 79.5272 39.2078C78.76 40.415 78.1458 41.674 77.6823 42.9916C77.2188 44.3069 76.9893 45.7079 76.9893 47.1944C76.9893 48.0953 77.1468 48.8993 77.4641 49.6066C77.7813 50.3138 78.1998 50.9039 78.724 51.3791C79.2482 51.8543 79.8444 52.2192 80.5126 52.476C81.183 52.7327 81.8827 52.8589 82.6117 52.8589C83.4149 52.8589 84.2181 52.6944 85.0213 52.3656C85.8244 52.0368 86.5421 51.5255 87.1744 50.8295C87.8066 50.1358 88.3173 49.2575 88.7087 48.1989C89.098 47.1381 89.2937 45.879 89.2937 44.415C89.2937 43.2709 89.197 42.174 89.0012 41.1245C88.8055 40.0772 88.5625 39.0524 88.27 38.0546C87.9775 37.0546 87.6626 36.0681 87.3206 35.0951C86.9809 34.1199 86.6636 33.1221 86.3712 32.0973C87.3453 31.0004 88.324 29.8315 89.3094 28.5882C90.2949 27.345 91.2983 25.9441 92.322 24.3855C92.565 23.9711 92.7854 23.5814 92.9789 23.2165C93.1724 22.8449 93.3546 22.4913 93.5256 22.1512ZM98.4123 19.2638C98.4123 19.3359 98.2593 19.453 97.9556 19.6106C97.6518 19.7683 97.2739 19.9642 96.8239 20.1962C96.3739 20.4282 95.8925 20.6895 95.3817 20.9823C94.871 21.2751 94.4076 21.5904 93.9936 21.9327C93.2624 21.7368 92.8979 21.5071 92.8979 21.239C92.8979 20.9958 93.1229 20.7571 93.5729 20.5273C94.0228 20.2976 94.5516 20.0836 95.1613 19.8877C95.7687 19.6917 96.3672 19.5341 96.9499 19.4124C97.5348 19.2908 97.9601 19.23 98.2278 19.23C98.3515 19.2255 98.4123 19.239 98.4123 19.2638ZM109 22.1512C108.829 22.5161 108.654 22.8877 108.471 23.2661C108.289 23.6445 108.075 24.0026 107.832 24.3449C107.101 25.4418 106.201 26.3968 105.13 27.2144C104.059 28.0297 102.934 28.7121 101.753 29.2617C100.572 29.809 99.3797 30.2189 98.176 30.4869C96.9701 30.7549 95.8565 30.8901 94.835 30.8901C94.3243 30.8901 94.0678 30.7932 94.0678 30.5973C94.0678 30.4757 94.1286 30.3833 94.2501 30.3225C94.3716 30.2617 94.4931 30.2302 94.6146 30.2302C95.2715 30.1806 95.9779 30.0297 96.7316 29.7729C97.4853 29.5162 98.185 29.2054 98.8307 28.8405C99.4764 28.4756 100.012 28.0792 100.437 27.6536C100.862 27.2279 101.076 26.8067 101.076 26.3923C101.076 25.9283 100.84 25.5522 100.365 25.2594C99.8904 24.9666 99.2942 24.7166 98.5765 24.5094C97.8588 24.3021 97.0849 24.1197 96.2569 23.9621C95.429 23.8044 94.6573 23.6332 93.9374 23.4508C93.2197 23.2684 92.6234 23.0431 92.1487 22.7751C91.674 22.5071 91.4378 22.167 91.4378 21.7526C91.4378 21.3629 91.7168 20.9553 92.277 20.5273C92.8372 20.1016 93.5121 19.7165 94.3041 19.3764C95.096 19.0363 95.9037 18.7548 96.7316 18.5363C97.5596 18.3178 98.2413 18.2075 98.7768 18.2075C99.337 18.2075 99.7262 18.239 99.9444 18.2998C100.163 18.3606 100.273 18.453 100.273 18.5746C100.273 18.7705 100.066 18.9958 99.6519 19.2503C99.238 19.507 98.7385 19.7931 98.1558 20.1084C97.5708 20.426 96.9566 20.7548 96.3109 21.0949C95.6652 21.435 95.1118 21.7773 94.6505 22.1174C95.3322 22.2886 96.1242 22.4643 97.0241 22.6467C97.9241 22.8292 98.77 23.0611 99.5619 23.3404C100.354 23.6197 101.022 23.9553 101.571 24.3449C102.118 24.7346 102.392 25.2211 102.392 25.8067C102.392 26.1715 102.257 26.5432 101.99 26.9216C101.722 27.2999 101.418 27.6468 101.076 27.9621C100.687 28.3022 100.237 28.6446 99.7262 28.9846C99.7262 29.0342 99.7869 29.0567 99.9084 29.0567C100.104 29.0567 100.487 28.9644 101.058 28.7819C101.63 28.5995 102.275 28.3135 102.993 27.9238C103.711 27.5342 104.442 27.0342 105.184 26.4261C105.927 25.8179 106.566 25.0747 107.101 24.1963C107.319 23.8314 107.526 23.4598 107.722 23.0814C107.918 22.703 108.111 22.3314 108.307 21.9665L109 22.1512Z"
        />
    </g>

    <g id="link-chain">
        <path d="M11.2864 8.71333C10.6038 8.03103 9.67822 7.64774 8.71309 7.64774C7.74797 7.64774 6.82235 8.03103 6.13976 8.71333L3.56559 11.2867C2.88299 11.9693 2.49951 12.8951 2.49951 13.8604C2.49951 14.8258 2.88299 15.7516 3.56559 16.4342C4.24819 17.1168 5.174 17.5002 6.13934 17.5002C7.10469 17.5002 8.03049 17.1168 8.71309 16.4342L9.99976 15.1475"
              stroke="black" stroke-width="1.66667" stroke-linecap="round" stroke-linejoin="round"/>
        <path d="M8.71289 11.2867C9.39548 11.969 10.3211 12.3523 11.2862 12.3523C12.2513 12.3523 13.177 11.969 13.8596 11.2867L16.4337 8.71334C17.1163 8.03074 17.4998 7.10493 17.4998 6.13959C17.4998 5.17424 17.1163 4.24844 16.4337 3.56584C15.7511 2.88324 14.8253 2.49976 13.86 2.49976C12.8946 2.49976 11.9688 2.88324 11.2862 3.56584L9.99956 4.8525"
              stroke="black" stroke-width="1.66667" stroke-linecap="round" stroke-linejoin="round"/>
    </g>

    <g id="html">
        <path d="M22.1323 102.004L13.7061 7.5H106.294L97.856 101.989L59.9436 112.5L22.1323 102.004Z" fill="#E44F26"/>
        <path d="M60 104.468L90.6375 95.9738L97.845 15.2288H60V104.468Z" fill="#F1662A"/>
        <path d="M60 50.2762H44.6625L43.605 38.4075H60V26.8162H30.9375L31.215 29.9287L34.0613 61.8675H60V50.2762ZM60 80.3775L59.9475 80.3925L47.04 76.9087L46.215 67.665H34.5787L36.2025 85.86L59.9475 92.4525L60 92.4375V80.3775Z"
              fill="#EBEBEB"/>
        <path d="M59.959 50.2762V61.8675H74.2315L72.889 76.9012L59.959 80.3887V92.4487L83.7227 85.86L83.8952 83.9025L86.6177 53.3887L86.9027 50.2762H59.959ZM59.959 26.8162V38.4075H87.9565L88.189 35.805L88.7177 29.9287L88.9952 26.8162H59.959Z"
              fill="white"/>
    </g>

    <g id="css">
        <path d="M22.1325 101.154L13.71 7.4375H106.29L97.8562 101.139L59.9437 111.562L22.1325 101.154Z" fill="#1572B6"/>
        <path d="M60 103.597L90.6375 95.174L97.845 15.1019H60V103.597Z" fill="#33A9DC"/>
        <path d="M60 49.054H75.3375L76.395 37.2842H60V25.7896H89.0625L88.785 28.8724L85.9387 60.5487H60V49.054Z"
              fill="white"/>
        <path d="M60.0711 78.9045L60.0186 78.9193L47.1112 75.4609L46.2862 66.2942H34.6499L36.2737 84.3413L60.0149 90.8788L60.0711 90.864V78.9045Z"
              fill="#EBEBEB"/>
        <path d="M74.3513 60.0615L72.9563 75.4534L60.03 78.9119V90.8714L83.79 84.3412L83.9663 82.4001L85.98 60.0615H74.3513Z"
              fill="white"/>
        <path d="M60.0411 25.7896V37.2842H32.0436L31.8111 34.6997L31.2824 28.8724L31.0049 25.7896H60.0411ZM59.9999 49.054V60.5487H47.2536L47.0211 57.9642L46.4961 52.1369L46.2186 49.054H59.9999Z"
              fill="#EBEBEB"/>
    </g>

    <g id="place-about">
        <path d="M3.3335 1.5V10.5H7.3335V8.75H8.66683V10.5H12.6668V1.5H3.3335ZM4.66683 2.5H6.00016V3.5H4.66683V2.5ZM7.3335 2.5H8.66683V3.5H7.3335V2.5ZM10.0002 2.5H11.3335V3.5H10.0002V2.5ZM4.66683 4.5H6.00016V5.5H4.66683V4.5ZM7.3335 4.5H8.66683V5.5H7.3335V4.5ZM10.0002 4.5H11.3335V5.5H10.0002V4.5ZM4.66683 6.5H6.00016V7.5H4.66683V6.5ZM7.3335 6.5H8.66683V7.5H7.3335V6.5ZM10.0002 6.5H11.3335V7.5H10.0002V6.5ZM4.66683 8.5H6.00016V9.5H4.66683V8.5ZM10.0002 8.5H11.3335V9.5H10.0002V8.5Z"
              fill="#A7A7A7"/>
    </g>

    <g id="location-about">
        <path d="M8 6.75C7.50555 6.75 7.0222 6.64003 6.61108 6.43401C6.19995 6.22798 5.87952 5.93514 5.6903 5.59253C5.50108 5.24992 5.45157 4.87292 5.54804 4.50921C5.6445 4.14549 5.8826 3.8114 6.23223 3.54918C6.58187 3.28695 7.02732 3.10838 7.51228 3.03603C7.99723 2.96368 8.4999 3.00081 8.95671 3.14273C9.41353 3.28464 9.80397 3.52496 10.0787 3.83331C10.3534 4.14165 10.5 4.50416 10.5 4.875C10.4992 5.3721 10.2356 5.84867 9.76689 6.20017C9.29822 6.55167 8.6628 6.74941 8 6.75ZM8 3.75C7.70333 3.75 7.41332 3.81598 7.16665 3.9396C6.91997 4.06321 6.72771 4.23892 6.61418 4.44448C6.50065 4.65005 6.47095 4.87625 6.52882 5.09448C6.5867 5.31271 6.72956 5.51316 6.93934 5.6705C7.14912 5.82783 7.41639 5.93498 7.70737 5.97838C7.99834 6.02179 8.29994 5.99951 8.57403 5.91437C8.84812 5.82922 9.08238 5.68502 9.24721 5.50002C9.41203 5.31501 9.5 5.09751 9.5 4.875C9.4996 4.57672 9.34144 4.29075 9.06022 4.07983C8.779 3.86892 8.3977 3.7503 8 3.75Z"
              fill="#A7A7A7"/>
        <path d="M8.00001 11.25L3.78201 7.51912C3.7234 7.4631 3.66539 7.40673 3.60801 7.35C2.8875 6.63817 2.49826 5.76871 2.50001 4.875C2.50001 3.78098 3.07947 2.73177 4.11092 1.95818C5.14237 1.1846 6.54132 0.75 8.00001 0.75C9.4587 0.75 10.8576 1.1846 11.8891 1.95818C12.9205 2.73177 13.5 3.78098 13.5 4.875C13.5018 5.7683 13.1127 6.63737 12.3925 7.34888L12.392 7.35C12.392 7.35 12.242 7.49775 12.2195 7.51763L8.00001 11.25ZM4.40601 6.89813C4.40701 6.89813 4.52301 7.01362 4.54951 7.03837L8.00001 10.0905L11.455 7.03425C11.477 7.01362 11.594 6.89738 11.5945 6.897C12.1831 6.31542 12.5012 5.60514 12.5 4.875C12.5 3.97989 12.0259 3.12145 11.182 2.48851C10.3381 1.85558 9.19348 1.5 8.00001 1.5C6.80653 1.5 5.66194 1.85558 4.81803 2.48851C3.97411 3.12145 3.50001 3.97989 3.50001 4.875C3.49896 5.60559 3.81739 6.31628 4.40651 6.89813H4.40601Z"
              fill="#A7A7A7"/>
    </g>

    <g id="git">
        <g clip-path="url(#clip0_4537_874)">
            <path fill-rule="evenodd" clip-rule="evenodd"
                  d="M10 0C4.475 0 0 4.475 0 10C0 14.425 2.8625 18.1625 6.8375 19.4875C7.3375 19.575 7.525 19.275 7.525 19.0125C7.525 18.775 7.5125 17.9875 7.5125 17.15C5 17.6125 4.35 16.5375 4.15 15.975C4.0375 15.6875 3.55 14.8 3.125 14.5625C2.775 14.375 2.275 13.9125 3.1125 13.9C3.9 13.8875 4.4625 14.625 4.65 14.925C5.55 16.4375 6.9875 16.0125 7.5625 15.75C7.65 15.1 7.9125 14.6625 8.2 14.4125C5.975 14.1625 3.65 13.3 3.65 9.475C3.65 8.3875 4.0375 7.4875 4.675 6.7875C4.575 6.5375 4.225 5.5125 4.775 4.1375C4.775 4.1375 5.6125 3.875 7.525 5.1625C8.325 4.9375 9.175 4.825 10.025 4.825C10.875 4.825 11.725 4.9375 12.525 5.1625C14.4375 3.8625 15.275 4.1375 15.275 4.1375C15.825 5.5125 15.475 6.5375 15.375 6.7875C16.0125 7.4875 16.4 8.375 16.4 9.475C16.4 13.3125 14.0625 14.1625 11.8375 14.4125C12.2 14.725 12.5125 15.325 12.5125 16.2625C12.5125 17.6 12.5 18.675 12.5 19.0125C12.5 19.275 12.6875 19.5875 13.1875 19.4875C15.1726 18.8173 16.8976 17.5414 18.1197 15.8395C19.3418 14.1375 19.9994 12.0952 20 10C20 4.475 15.525 0 10 0Z"
                  fill="black"/>
        </g>
        <defs>
            <clipPath id="clip0_4537_874">
                <rect width="20" height="20" fill="white"/>
            </clipPath>
        </defs>
    </g>

    <g id="date-about">
        <path d="M5.33341 6.5C5.1566 6.5 4.98703 6.44732 4.86201 6.35355C4.73699 6.25979 4.66675 6.13261 4.66675 6C4.66675 5.86739 4.73699 5.74021 4.86201 5.64645C4.98703 5.55268 5.1566 5.5 5.33341 5.5C5.51023 5.5 5.67979 5.55268 5.80482 5.64645C5.92984 5.74021 6.00008 5.86739 6.00008 6C6.00008 6.13261 5.92984 6.25979 5.80482 6.35355C5.67979 6.44732 5.51023 6.5 5.33341 6.5ZM5.33341 8.5C5.1566 8.5 4.98703 8.44732 4.86201 8.35355C4.73699 8.25979 4.66675 8.13261 4.66675 8C4.66675 7.86739 4.73699 7.74021 4.86201 7.64645C4.98703 7.55268 5.1566 7.5 5.33341 7.5C5.51023 7.5 5.67979 7.55268 5.80482 7.64645C5.92984 7.74021 6.00008 7.86739 6.00008 8C6.00008 8.13261 5.92984 8.25979 5.80482 8.35355C5.67979 8.44732 5.51023 8.5 5.33341 8.5ZM7.33341 8C7.33341 8.13261 7.40365 8.25979 7.52868 8.35355C7.6537 8.44732 7.82327 8.5 8.00008 8.5C8.17689 8.5 8.34646 8.44732 8.47149 8.35355C8.59651 8.25979 8.66675 8.13261 8.66675 8C8.66675 7.86739 8.59651 7.74021 8.47149 7.64645C8.34646 7.55268 8.17689 7.5 8.00008 7.5C7.82327 7.5 7.6537 7.55268 7.52868 7.64645C7.40365 7.74021 7.33341 7.86739 7.33341 8ZM10.6667 8.5C10.4899 8.5 10.3204 8.44732 10.1953 8.35355C10.0703 8.25979 10.0001 8.13261 10.0001 8C10.0001 7.86739 10.0703 7.74021 10.1953 7.64645C10.3204 7.55268 10.4899 7.5 10.6667 7.5C10.8436 7.5 11.0131 7.55268 11.1382 7.64645C11.2632 7.74021 11.3334 7.86739 11.3334 8C11.3334 8.13261 11.2632 8.25979 11.1382 8.35355C11.0131 8.44732 10.8436 8.5 10.6667 8.5ZM7.33341 6C7.33341 6.13261 7.40365 6.25979 7.52868 6.35355C7.6537 6.44732 7.82327 6.5 8.00008 6.5C8.17689 6.5 8.34646 6.44732 8.47149 6.35355C8.59651 6.25979 8.66675 6.13261 8.66675 6C8.66675 5.86739 8.59651 5.74021 8.47149 5.64645C8.34646 5.55268 8.17689 5.5 8.00008 5.5C7.82327 5.5 7.6537 5.55268 7.52868 5.64645C7.40365 5.74021 7.33341 5.86739 7.33341 6ZM10.6667 6.5C10.4899 6.5 10.3204 6.44732 10.1953 6.35355C10.0703 6.25979 10.0001 6.13261 10.0001 6C10.0001 5.86739 10.0703 5.74021 10.1953 5.64645C10.3204 5.55268 10.4899 5.5 10.6667 5.5C10.8436 5.5 11.0131 5.55268 11.1382 5.64645C11.2632 5.74021 11.3334 5.86739 11.3334 6C11.3334 6.13261 11.2632 6.25979 11.1382 6.35355C11.0131 6.44732 10.8436 6.5 10.6667 6.5ZM5.33341 3.5C5.1566 3.5 4.98703 3.55268 4.86201 3.64645C4.73699 3.74021 4.66675 3.86739 4.66675 4C4.66675 4.13261 4.73699 4.25979 4.86201 4.35355C4.98703 4.44732 5.1566 4.5 5.33341 4.5H10.6667C10.8436 4.5 11.0131 4.44732 11.1382 4.35355C11.2632 4.25979 11.3334 4.13261 11.3334 4C11.3334 3.86739 11.2632 3.74021 11.1382 3.64645C11.0131 3.55268 10.8436 3.5 10.6667 3.5H5.33341Z"
              fill="#A7A7A7"/>
        <path fill-rule="evenodd" clip-rule="evenodd"
              d="M4 1.5C3.46957 1.5 2.96086 1.65804 2.58579 1.93934C2.21071 2.22064 2 2.60218 2 3V9C2 9.39782 2.21071 9.77936 2.58579 10.0607C2.96086 10.342 3.46957 10.5 4 10.5H12C12.5304 10.5 13.0391 10.342 13.4142 10.0607C13.7893 9.77936 14 9.39782 14 9V3C14 2.60218 13.7893 2.22064 13.4142 1.93934C13.0391 1.65804 12.5304 1.5 12 1.5H4ZM12 2.5H4C3.82319 2.5 3.65362 2.55268 3.5286 2.64645C3.40357 2.74021 3.33333 2.86739 3.33333 3V9C3.33333 9.13261 3.40357 9.25979 3.5286 9.35355C3.65362 9.44732 3.82319 9.5 4 9.5H12C12.1768 9.5 12.3464 9.44732 12.4714 9.35355C12.5964 9.25979 12.6667 9.13261 12.6667 9V3C12.6667 2.86739 12.5964 2.74021 12.4714 2.64645C12.3464 2.55268 12.1768 2.5 12 2.5Z"
              fill="#A7A7A7"/>
    </g>

    <g id="instagram">
        <path d="M 16 3 C 8.83 3 3 8.83 3 16 L 3 34 C 3 41.17 8.83 47 16 47 L 34 47 C 41.17 47 47 41.17 47 34 L 47 16 C 47 8.83 41.17 3 34 3 L 16 3 z M 37 11 C 38.1 11 39 11.9 39 13 C 39 14.1 38.1 15 37 15 C 35.9 15 35 14.1 35 13 C 35 11.9 35.9 11 37 11 z M 25 14 C 31.07 14 36 18.93 36 25 C 36 31.07 31.07 36 25 36 C 18.93 36 14 31.07 14 25 C 14 18.93 18.93 14 25 14 z M 25 16 C 20.04 16 16 20.04 16 25 C 16 29.96 20.04 34 25 34 C 29.96 34 34 29.96 34 25 C 34 20.04 29.96 16 25 16 z"></path>
    </g>

    <g id="telegram">
        <path d="M25,2c12.703,0,23,10.297,23,23S37.703,48,25,48S2,37.703,2,25S12.297,2,25,2z M32.934,34.375	c0.423-1.298,2.405-14.234,2.65-16.783c0.074-0.772-0.17-1.285-0.648-1.514c-0.578-0.278-1.434-0.139-2.427,0.219	c-1.362,0.491-18.774,7.884-19.78,8.312c-0.954,0.405-1.856,0.847-1.856,1.487c0,0.45,0.267,0.703,1.003,0.966	c0.766,0.273,2.695,0.858,3.834,1.172c1.097,0.303,2.346,0.04,3.046-0.395c0.742-0.461,9.305-6.191,9.92-6.693	c0.614-0.502,1.104,0.141,0.602,0.644c-0.502,0.502-6.38,6.207-7.155,6.997c-0.941,0.959-0.273,1.953,0.358,2.351	c0.721,0.454,5.906,3.932,6.687,4.49c0.781,0.558,1.573,0.811,2.298,0.811C32.191,36.439,32.573,35.484,32.934,34.375z"></path>
    </g>

    <g id="github">
        <path d="M17.791,46.836C18.502,46.53,19,45.823,19,45v-5.4c0-0.197,0.016-0.402,0.041-0.61C19.027,38.994,19.014,38.997,19,39 c0,0-3,0-3.6,0c-1.5,0-2.8-0.6-3.4-1.8c-0.7-1.3-1-3.5-2.8-4.7C8.9,32.3,9.1,32,9.7,32c0.6,0.1,1.9,0.9,2.7,2c0.9,1.1,1.8,2,3.4,2 c2.487,0,3.82-0.125,4.622-0.555C21.356,34.056,22.649,33,24,33v-0.025c-5.668-0.182-9.289-2.066-10.975-4.975 c-3.665,0.042-6.856,0.405-8.677,0.707c-0.058-0.327-0.108-0.656-0.151-0.987c1.797-0.296,4.843-0.647,8.345-0.714 c-0.112-0.276-0.209-0.559-0.291-0.849c-3.511-0.178-6.541-0.039-8.187,0.097c-0.02-0.332-0.047-0.663-0.051-0.999 c1.649-0.135,4.597-0.27,8.018-0.111c-0.079-0.5-0.13-1.011-0.13-1.543c0-1.7,0.6-3.5,1.7-5c-0.5-1.7-1.2-5.3,0.2-6.6 c2.7,0,4.6,1.3,5.5,2.1C21,13.4,22.9,13,25,13s4,0.4,5.6,1.1c0.9-0.8,2.8-2.1,5.5-2.1c1.5,1.4,0.7,5,0.2,6.6c1.1,1.5,1.7,3.2,1.6,5 c0,0.484-0.045,0.951-0.11,1.409c3.499-0.172,6.527-0.034,8.204,0.102c-0.002,0.337-0.033,0.666-0.051,0.999 c-1.671-0.138-4.775-0.28-8.359-0.089c-0.089,0.336-0.197,0.663-0.325,0.98c3.546,0.046,6.665,0.389,8.548,0.689 c-0.043,0.332-0.093,0.661-0.151,0.987c-1.912-0.306-5.171-0.664-8.879-0.682C35.112,30.873,31.557,32.75,26,32.969V33 c2.6,0,5,3.9,5,6.6V45c0,0.823,0.498,1.53,1.209,1.836C41.37,43.804,48,35.164,48,25C48,12.318,37.683,2,25,2S2,12.318,2,25 C2,35.164,8.63,43.804,17.791,46.836z"></path>
    </g>


    <g id="php">
        <circle cx="16" cy="16" r="14" fill="#8892BF"/>
        <path d="M14.4392 10H16.1192L15.6444 12.5242H17.154C17.9819 12.5419 18.5986 12.7269 19.0045 13.0793C19.4184 13.4316 19.5402 14.1014 19.3698 15.0881L18.5541 19.4889H16.8497L17.6288 15.2863C17.7099 14.8457 17.6856 14.533 17.5558 14.348C17.426 14.163 17.146 14.0705 16.7158 14.0705L15.3644 14.0573L14.3661 19.4889H12.6861L14.4392 10Z"
              fill="white"/>
        <path fill-rule="evenodd" clip-rule="evenodd"
              d="M6.74092 12.5243H10.0036C10.9612 12.533 11.6552 12.8327 12.0854 13.4229C12.5156 14.0132 12.6576 14.8193 12.5115 15.8414C12.4548 16.3085 12.3289 16.7665 12.1341 17.2159C11.9474 17.6652 11.6878 18.0704 11.355 18.4317C10.9491 18.8898 10.5149 19.1805 10.0523 19.304C9.58969 19.4274 9.11076 19.489 8.61575 19.489H7.15484L6.69222 22H5L6.74092 12.5243ZM7.43485 17.9956L8.16287 14.0441H8.40879C8.49815 14.0441 8.5914 14.0396 8.6888 14.0309C9.33817 14.0221 9.87774 14.0882 10.308 14.2291C10.7462 14.37 10.8923 14.9031 10.7462 15.8282C10.5678 16.9296 10.2186 17.5727 9.69926 17.7577C9.1799 17.934 8.53053 18.0176 7.75138 18.0088H7.58094C7.53224 18.0088 7.48355 18.0043 7.43485 17.9956Z"
              fill="white"/>
        <path fill-rule="evenodd" clip-rule="evenodd"
              d="M24.4365 12.5243H21.1738L19.4329 22H21.1251L21.5878 19.489H23.0487C23.5437 19.489 24.0226 19.4274 24.4852 19.304C24.9479 19.1805 25.382 18.8898 25.7879 18.4317C26.1207 18.0704 26.3803 17.6652 26.567 17.2159C26.7618 16.7665 26.8877 16.3085 26.9444 15.8414C27.0905 14.8193 26.9486 14.0132 26.5183 13.4229C26.0881 12.8327 25.3942 12.533 24.4365 12.5243ZM22.5958 14.0441L21.8678 17.9956C21.9165 18.0043 21.9652 18.0088 22.0139 18.0088H22.1843C22.9635 18.0176 23.6128 17.934 24.1322 17.7577C24.6515 17.5727 25.0007 16.9296 25.1792 15.8282C25.3253 14.9031 25.1792 14.37 24.7409 14.2291C24.3107 14.0882 23.7711 14.0221 23.1217 14.0309C23.0243 14.0396 22.9311 14.0441 22.8417 14.0441H22.5958Z"
              fill="white"/>
    </g>

    <g id="linux">
        <path d="M14.923 8.080c-0.025 0.072-0.141 0.061-0.207 0.082-0.059 0.031-0.107 0.085-0.175 0.085-0.062 0-0.162-0.025-0.17-0.085-0.012-0.082 0.11-0.166 0.187-0.166 0.050-0.024 0.108-0.037 0.169-0.037 0.056 0 0.109 0.011 0.157 0.032l-0.003-0.001c0.022 0.009 0.038 0.030 0.038 0.055 0 0.003-0 0.005-0.001 0.008l0-0v0.025h0.004zM15.611 8.080v-0.027c-0.008-0.025 0.016-0.052 0.036-0.062 0.046-0.020 0.1-0.032 0.157-0.032 0.061 0 0.119 0.014 0.17 0.038l-0.002-0.001c0.079 0 0.2 0.084 0.187 0.169-0.007 0.061-0.106 0.082-0.169 0.082-0.069 0-0.115-0.054-0.176-0.085-0.065-0.023-0.182-0.010-0.204-0.081zM16.963 10.058c-0.532 0.337-1.161 0.574-1.835 0.666l-0.024 0.003c-0.606-0.035-1.157-0.248-1.607-0.588l0.007 0.005c-0.192-0.167-0.35-0.335-0.466-0.419-0.205-0.167-0.18-0.416-0.092-0.416 0.136 0.020 0.161 0.167 0.249 0.25 0.12 0.082 0.269 0.25 0.45 0.416 0.397 0.328 0.899 0.541 1.45 0.583l0.009 0.001c0.654-0.057 1.249-0.267 1.763-0.592l-0.016 0.010c0.244-0.169 0.556-0.417 0.81-0.584 0.195-0.17 0.186-0.334 0.349-0.334 0.16 0.020 0.043 0.167-0.184 0.415-0.246 0.188-0.527 0.381-0.818 0.56l-0.044 0.025zM8.017 21.397h0.012c0.069 0 0.137 0.007 0.203 0.019l-0.007-0.001c0.544 0.14 0.992 0.478 1.273 0.931l0.005 0.009 1.137 2.079 0.004 0.004c0.457 0.773 0.948 1.442 1.497 2.059l-0.011-0.013c0.49 0.52 0.82 1.196 0.909 1.946l0.002 0.016v0.008c-0.012 0.817-0.613 1.491-1.396 1.616l-0.009 0.001c-0.2 0.031-0.432 0.048-0.667 0.048-0.857 0-1.659-0.233-2.347-0.64l0.021 0.012c-1.053-0.441-2.275-0.714-3.555-0.752l-0.015-0c-0.372-0.025-0.696-0.215-0.901-0.496l-0.002-0.003c-0.054-0.174-0.085-0.374-0.085-0.582 0-0.35 0.088-0.679 0.244-0.966l-0.005 0.011v-0.005l0.003-0.004c0.041-0.188 0.065-0.405 0.065-0.627 0-0.274-0.036-0.539-0.104-0.791l0.005 0.021c-0.041-0.15-0.065-0.323-0.065-0.502 0-0.242 0.043-0.473 0.123-0.687l-0.004 0.014c0.2-0.417 0.495-0.5 0.862-0.666 0.438-0.133 0.819-0.334 1.151-0.593l-0.008 0.006h0.002v-0.003c0.32-0.335 0.556-0.751 0.835-1.047 0.195-0.249 0.492-0.41 0.827-0.42l0.002-0zM21.531 21.336c-0.001 0.017-0.001 0.038-0.001 0.059 0 0.743 0.449 1.381 1.091 1.658l0.012 0.005c0.048 0.003 0.104 0.005 0.16 0.005 0.831 0 1.575-0.371 2.075-0.957l0.003-0.004 0.264-0.012c0.053-0.008 0.114-0.012 0.176-0.012 0.341 0 0.652 0.132 0.883 0.348l-0.001-0.001 0.004 0.004c0.249 0.301 0.422 0.673 0.487 1.082l0.002 0.013c0.055 0.505 0.238 0.96 0.517 1.34l-0.005-0.008c0.416 0.356 0.705 0.85 0.793 1.411l0.002 0.013 0.004-0.009v0.022l-0.004-0.015c-0.019 0.327-0.231 0.495-0.622 0.744-1.184 0.497-2.201 1.158-3.077 1.968l0.007-0.006c-0.608 0.792-1.501 1.339-2.523 1.486l-0.021 0.002c-0.074 0.010-0.16 0.016-0.247 0.016-0.768 0-1.428-0.464-1.716-1.126l-0.005-0.012-0.006-0.004c-0.093-0.286-0.146-0.615-0.146-0.956 0-0.416 0.079-0.813 0.224-1.178l-0.008 0.022c0.234-0.668 0.435-1.466 0.568-2.288l0.011-0.083c0.016-0.812 0.104-1.593 0.258-2.35l-0.014 0.083c0.085-0.518 0.381-0.954 0.794-1.225l0.007-0.004 0.056-0.027zM18.8 10.142c0.6 2.147 1.339 4.002 2.247 5.757l-0.079-0.167c0.613 1.090 1.090 2.355 1.363 3.695l0.014 0.084c0.009-0 0.020-0 0.031-0 0.217 0 0.427 0.029 0.627 0.084l-0.017-0.004c0.11-0.395 0.173-0.848 0.173-1.316 0-1.426-0.587-2.716-1.533-3.639l-0.001-0.001c-0.275-0.25-0.29-0.419-0.154-0.419 0.971 0.91 1.689 2.078 2.045 3.394l0.012 0.051c0.089 0.329 0.14 0.707 0.14 1.097 0 0.351-0.041 0.693-0.119 1.020l0.006-0.030c0.074 0.038 0.16 0.067 0.251 0.083l0.006 0.001c1.29 0.667 1.766 1.172 1.537 1.921v-0.054c-0.075-0.004-0.15 0-0.225 0h-0.020c0.189-0.584-0.227-1.031-1.331-1.53-1.143-0.5-2.057-0.42-2.212 0.581-0.011 0.049-0.019 0.106-0.022 0.165l-0 0.003c-0.073 0.030-0.16 0.058-0.25 0.078l-0.011 0.002c-0.508 0.336-0.87 0.859-0.989 1.469l-0.002 0.014c-0.148 0.695-0.241 1.5-0.256 2.323l-0 0.012v0.004c-0.091 0.637-0.23 1.207-0.418 1.753l0.020-0.066c-0.983 0.804-2.251 1.29-3.634 1.29-1.13 0-2.184-0.325-3.073-0.887l0.024 0.014c-0.146-0.253-0.313-0.472-0.503-0.667l0.001 0.001c-0.097-0.16-0.211-0.297-0.342-0.415l-0.002-0.001c0.207-0 0.407-0.031 0.596-0.088l-0.015 0.004c0.18-0.085 0.318-0.232 0.391-0.412l0.002-0.005c0.018-0.093 0.029-0.199 0.029-0.308 0-0.445-0.175-0.848-0.461-1.146l0.001 0.001c-0.619-0.761-1.359-1.395-2.196-1.88l-0.038-0.020c-0.671-0.388-1.179-0.995-1.43-1.722l-0.007-0.022c-0.093-0.318-0.147-0.684-0.147-1.062 0-0.353 0.047-0.695 0.134-1.021l-0.006 0.027c0.377-1.314 0.921-2.461 1.62-3.496l-0.028 0.043c0.134-0.081 0.046 0.169-0.51 1.217-0.474 0.713-0.757 1.59-0.757 2.533 0 0.84 0.224 1.627 0.616 2.306l-0.012-0.022c0.052-1.309 0.345-2.537 0.834-3.659l-0.025 0.065c1.055-1.902 1.854-4.111 2.275-6.452l0.020-0.131c0.060 0.045 0.271 0.169 0.361 0.252 0.272 0.166 0.475 0.416 0.737 0.581 0.267 0.26 0.633 0.42 1.035 0.42 0.021 0 0.042-0 0.063-0.001l-0.003 0c0.049 0.004 0.094 0.008 0.137 0.008 0.459-0.009 0.887-0.132 1.259-0.342l-0.013 0.007c0.362-0.167 0.65-0.417 0.925-0.5h0.006c0.535-0.145 0.983-0.454 1.3-0.869l0.004-0.006zM15.301 7.465c0.003 0 0.006-0 0.009-0 0.569 0 1.094 0.187 1.517 0.503l-0.007-0.005c0.378 0.234 0.814 0.433 1.275 0.574l0.040 0.010h0.004c0.246 0.11 0.449 0.281 0.594 0.494l0.003 0.005v-0.164c0.046 0.092 0.074 0.201 0.074 0.316 0 0.098-0.020 0.191-0.055 0.276l0.002-0.005c-0.288 0.507-0.755 0.884-1.313 1.048l-0.016 0.004v0.002c-0.335 0.169-0.626 0.416-0.968 0.581-0.35 0.21-0.771 0.334-1.222 0.334-0.015 0-0.030-0-0.045-0l0.002 0c-0.022 0.001-0.048 0.002-0.074 0.002-0.174 0-0.342-0.031-0.496-0.089l0.010 0.003c-0.159-0.087-0.29-0.169-0.417-0.257l0.014 0.010c-0.227-0.199-0.477-0.39-0.739-0.565l-0.026-0.016v-0.006h-0.006c-0.375-0.199-0.67-0.504-0.852-0.876l-0.005-0.012c-0.027-0.067-0.042-0.145-0.042-0.226 0-0.218 0.112-0.41 0.281-0.522l0.002-0.001c0.28-0.169 0.475-0.339 0.604-0.42 0.13-0.092 0.179-0.127 0.22-0.164h0.002v-0.004c0.268-0.339 0.623-0.599 1.032-0.746l0.016-0.005c0.174-0.050 0.374-0.079 0.581-0.081h0.001zM13.589 5.333h0.045c0.188 0.004 0.361 0.067 0.501 0.17l-0.002-0.002c0.179 0.159 0.325 0.352 0.425 0.57l0.004 0.011c0.113 0.245 0.183 0.53 0.191 0.83l0 0.003v0.005c0.004 0.046 0.006 0.099 0.006 0.152 0 0.063-0.003 0.126-0.009 0.188l0.001-0.008v0.1c-0.037 0.009-0.070 0.022-0.104 0.030-0.191 0.079-0.352 0.163-0.505 0.258l0.014-0.008c0.008-0.055 0.012-0.118 0.012-0.182 0-0.053-0.003-0.106-0.009-0.158l0.001 0.006v-0.019c-0.018-0.154-0.054-0.295-0.107-0.428l0.004 0.011c-0.041-0.132-0.113-0.244-0.207-0.333l-0-0c-0.055-0.050-0.128-0.081-0.209-0.081-0.007 0-0.014 0-0.021 0.001l0.001-0h-0.026c-0.103 0.011-0.189 0.075-0.232 0.163l-0.001 0.002c-0.077 0.093-0.13 0.208-0.15 0.334l-0 0.004c-0.023 0.086-0.035 0.185-0.035 0.287 0 0.044 0.002 0.088 0.007 0.131l-0-0.005v0.019c0.016 0.154 0.052 0.296 0.104 0.428l-0.004-0.011c0.042 0.132 0.113 0.245 0.207 0.335l0 0c0.012 0.012 0.026 0.022 0.042 0.030l0.001 0c-0.083 0.053-0.155 0.109-0.221 0.171l0.001-0.001c-0.045 0.040-0.1 0.070-0.161 0.084l-0.003 0.001c-0.123-0.147-0.237-0.312-0.335-0.486l-0.008-0.016c-0.113-0.245-0.183-0.529-0.194-0.83l-0-0.004c-0.004-0.048-0.006-0.104-0.006-0.161 0-0.241 0.039-0.473 0.11-0.69l-0.004 0.016c0.074-0.258 0.195-0.481 0.356-0.671l-0.002 0.003c0.127-0.15 0.313-0.245 0.522-0.25h0.001zM17.291 5.259h0.016c0.001 0 0.002 0 0.004 0 0.275 0 0.527 0.093 0.729 0.249l-0.003-0.002c0.229 0.177 0.413 0.4 0.542 0.655l0.005 0.011c0.121 0.266 0.196 0.575 0.207 0.901l0 0.004c0-0.025 0.007-0.050 0.007-0.075v0.131l-0.005-0.026-0.005-0.030c-0.003 0.32-0.071 0.622-0.193 0.897l0.006-0.014c-0.062 0.163-0.152 0.303-0.266 0.419l0-0c-0.030-0.018-0.067-0.035-0.104-0.050l-0.006-0.002c-0.135-0.042-0.253-0.099-0.36-0.169l0.005 0.003c-0.077-0.032-0.169-0.060-0.264-0.081l-0.011-0.002c0.081-0.076 0.156-0.157 0.225-0.243l0.004-0.005c0.063-0.148 0.102-0.319 0.11-0.499l0-0.003v-0.025c0-0.008 0-0.016 0-0.025 0-0.17-0.028-0.333-0.080-0.485l0.003 0.011c-0.063-0.159-0.14-0.296-0.232-0.421l0.004 0.005c-0.087-0.088-0.202-0.148-0.331-0.165l-0.003-0h-0.020c-0.001 0-0.003-0-0.004-0-0.132 0-0.25 0.065-0.322 0.164l-0.001 0.001c-0.116 0.113-0.204 0.253-0.254 0.41l-0.002 0.007c-0.063 0.147-0.104 0.318-0.112 0.496l-0 0.003v0.024c0.002 0.12 0.011 0.236 0.027 0.349l-0.002-0.015c-0.241-0.084-0.547-0.169-0.759-0.252-0.012-0.073-0.020-0.159-0.022-0.247l-0-0.003v-0.025c-0.001-0.020-0.001-0.043-0.001-0.066 0-0.324 0.069-0.631 0.194-0.908l-0.006 0.014c0.106-0.279 0.293-0.508 0.532-0.663l0.005-0.003c0.204-0.156 0.462-0.25 0.742-0.25h0zM16.63 1.004c-0.194 0-0.394 0.010-0.6 0.026-5.281 0.416-3.88 6.007-3.961 7.87-0.050 1.426-0.534 2.729-1.325 3.792l0.013-0.018c-1.407 1.602-2.555 3.474-3.351 5.523l-0.043 0.127c-0.258 0.685-0.408 1.476-0.408 2.302 0 0.285 0.018 0.566 0.052 0.841l-0.003-0.033c-0.056 0.046-0.103 0.102-0.136 0.166l-0.001 0.003c-0.325 0.335-0.562 0.75-0.829 1.048-0.283 0.217-0.615 0.388-0.975 0.494l-0.021 0.005c-0.464 0.139-0.842 0.442-1.075 0.841l-0.005 0.009c-0.104 0.212-0.165 0.461-0.165 0.725 0 0.010 0 0.019 0 0.029l-0-0.001c0.002 0.238 0.026 0.469 0.073 0.693l-0.004-0.023c0.056 0.219 0.088 0.471 0.088 0.73 0 0.17-0.014 0.337-0.041 0.5l0.002-0.018c-0.167 0.313-0.264 0.685-0.264 1.080 0 0.278 0.048 0.544 0.137 0.791l-0.005-0.016c0.273 0.388 0.686 0.662 1.164 0.749l0.011 0.002c1.274 0.107 2.451 0.373 3.561 0.78l-0.094-0.030c0.698 0.415 1.539 0.66 2.436 0.66 0.294 0 0.582-0.026 0.862-0.077l-0.029 0.004c0.667-0.151 1.211-0.586 1.504-1.169l0.006-0.013c0.734-0.004 1.537-0.336 2.824-0.417 0.873-0.072 1.967 0.334 3.22 0.25 0.037 0.159 0.086 0.298 0.148 0.429l-0.006-0.013 0.004 0.004c0.384 0.804 1.19 1.35 2.124 1.35 0.081 0 0.161-0.004 0.24-0.012l-0.010 0.001c1.151-0.17 2.139-0.768 2.813-1.623l0.007-0.009c0.843-0.768 1.827-1.401 2.905-1.853l0.067-0.025c0.432-0.191 0.742-0.585 0.81-1.059l0.001-0.007c-0.059-0.694-0.392-1.299-0.888-1.716l-0.004-0.003v-0.121l-0.004-0.004c-0.214-0.33-0.364-0.722-0.421-1.142l-0.002-0.015c-0.053-0.513-0.278-0.966-0.615-1.307l0 0h-0.004c-0.074-0.067-0.154-0.084-0.235-0.169-0.066-0.047-0.148-0.076-0.237-0.080l-0.001-0c0.195-0.602 0.308-1.294 0.308-2.013 0-0.94-0.193-1.835-0.541-2.647l0.017 0.044c-0.704-1.672-1.619-3.111-2.732-4.369l0.014 0.017c-1.105-1.082-1.828-2.551-1.948-4.187l-0.001-0.021c0.033-2.689 0.295-7.664-4.429-7.671z"></path>
    </g>

    <g id="react">
        <path d="M18.6789 15.9759C18.6789 14.5415 17.4796 13.3785 16 13.3785C14.5206 13.3785 13.3211 14.5415 13.3211 15.9759C13.3211 17.4105 14.5206 18.5734 16 18.5734C17.4796 18.5734 18.6789 17.4105 18.6789 15.9759Z"
              fill="#53C1DE"/>
        <path fill-rule="evenodd" clip-rule="evenodd"
              d="M24.7004 11.1537C25.2661 8.92478 25.9772 4.79148 23.4704 3.39016C20.9753 1.99495 17.7284 4.66843 16.0139 6.27318C14.3044 4.68442 10.9663 2.02237 8.46163 3.42814C5.96751 4.82803 6.73664 8.8928 7.3149 11.1357C4.98831 11.7764 1 13.1564 1 15.9759C1 18.7874 4.98416 20.2888 7.29698 20.9289C6.71658 23.1842 5.98596 27.1909 8.48327 28.5877C10.9973 29.9932 14.325 27.3945 16.0554 25.7722C17.7809 27.3864 20.9966 30.0021 23.4922 28.6014C25.9956 27.1963 25.3436 23.1184 24.7653 20.8625C27.0073 20.221 31 18.7523 31 15.9759C31 13.1835 26.9903 11.7923 24.7004 11.1537ZM24.4162 19.667C24.0365 18.5016 23.524 17.2623 22.8971 15.9821C23.4955 14.7321 23.9881 13.5088 24.3572 12.3509C26.0359 12.8228 29.7185 13.9013 29.7185 15.9759C29.7185 18.07 26.1846 19.1587 24.4162 19.667ZM22.85 27.526C20.988 28.571 18.2221 26.0696 16.9478 24.8809C17.7932 23.9844 18.638 22.9422 19.4625 21.7849C20.9129 21.6602 22.283 21.4562 23.5256 21.1777C23.9326 22.7734 24.7202 26.4763 22.85 27.526ZM9.12362 27.5111C7.26143 26.47 8.11258 22.8946 8.53957 21.2333C9.76834 21.4969 11.1286 21.6865 12.5824 21.8008C13.4123 22.9332 14.2816 23.9741 15.1576 24.8857C14.0753 25.9008 10.9945 28.557 9.12362 27.5111ZM2.28149 15.9759C2.28149 13.874 5.94207 12.8033 7.65904 12.3326C8.03451 13.5165 8.52695 14.7544 9.12123 16.0062C8.51925 17.2766 8.01977 18.5341 7.64085 19.732C6.00369 19.2776 2.28149 18.0791 2.28149 15.9759ZM9.1037 4.50354C10.9735 3.45416 13.8747 6.00983 15.1159 7.16013C14.2444 8.06754 13.3831 9.1006 12.5603 10.2265C11.1494 10.3533 9.79875 10.5569 8.55709 10.8297C8.09125 9.02071 7.23592 5.55179 9.1037 4.50354ZM20.3793 11.5771C21.3365 11.6942 22.2536 11.85 23.1147 12.0406C22.8562 12.844 22.534 13.6841 22.1545 14.5453C21.6044 13.5333 21.0139 12.5416 20.3793 11.5771ZM16.0143 8.0481C16.6054 8.66897 17.1974 9.3623 17.7798 10.1145C16.5985 10.0603 15.4153 10.0601 14.234 10.1137C14.8169 9.36848 15.414 8.67618 16.0143 8.0481ZM9.8565 14.5444C9.48329 13.6862 9.16398 12.8424 8.90322 12.0275C9.75918 11.8418 10.672 11.69 11.623 11.5748C10.9866 12.5372 10.3971 13.5285 9.8565 14.5444ZM11.6503 20.4657C10.6679 20.3594 9.74126 20.2153 8.88556 20.0347C9.15044 19.2055 9.47678 18.3435 9.85796 17.4668C10.406 18.4933 11.0045 19.4942 11.6503 20.4657ZM16.0498 23.9915C15.4424 23.356 14.8365 22.6531 14.2448 21.8971C15.4328 21.9423 16.6231 21.9424 17.811 21.891C17.2268 22.6608 16.6369 23.3647 16.0498 23.9915ZM22.1667 17.4222C22.5677 18.3084 22.9057 19.1657 23.1742 19.9809C22.3043 20.1734 21.3652 20.3284 20.3757 20.4435C21.015 19.4607 21.6149 18.4536 22.1667 17.4222ZM18.7473 20.5941C16.9301 20.72 15.1016 20.7186 13.2838 20.6044C12.2509 19.1415 11.3314 17.603 10.5377 16.0058C11.3276 14.4119 12.2404 12.8764 13.2684 11.4158C15.0875 11.2825 16.9178 11.2821 18.7369 11.4166C19.7561 12.8771 20.6675 14.4086 21.4757 15.9881C20.6771 17.5812 19.7595 19.1198 18.7473 20.5941ZM22.8303 4.4666C24.7006 5.51254 23.8681 9.22726 23.4595 10.8426C22.2149 10.5641 20.8633 10.3569 19.4483 10.2281C18.6239 9.09004 17.7698 8.05518 16.9124 7.15949C18.1695 5.98441 20.9781 3.43089 22.8303 4.4666Z"
              fill="#53C1DE"/>
    </g>

    <g id="sc">
        <path d="m18.05 29.6c.042-.095.148-.161.225-.241 1.175-1.232 2.36-2.453 3.519-3.7a3.2 3.2 0 0 0 1.014-2.659 5.925 5.925 0 0 0 -.143-.624c-.316.3-.61.573-.906.848-.46.428-.918.858-1.382 1.281a1.931 1.931 0 0 1 -2.148.419 1.973 1.973 0 0 1 -1.29-1.75 1.04 1.04 0 0 0 -.043-.146c-.353.3-.691.576-1.026.86l-6.963 5.9c-.048.041-.1.092-.145.132h9.283l-.014-.009c-.05-.035-.024-.219.019-.311z"
              fill="#ffcebf"/>
        <path d="m8.337 29.6a1.239 1.239 0 0 1 .295-.276l9.636-8.175q.986-.837 1.963-1.683a.523.523 0 0 0 .182-.224 5.364 5.364 0 0 0 .065-2.069c-.1.07-.154.1-.2.149-.789.706-1.574 1.418-2.367 2.12a1.762 1.762 0 0 1 -2.048.329 1.889 1.889 0 0 1 -1.08-1.807c0-.085 0-.169 0-.324-.145.106-.251.177-.35.257q-5.785 4.632-11.568 9.257c-.174.139-.382.449-.61.148s.119-.425.294-.565q6.165-4.947 12.336-9.885c.67-.537.714-.762.278-1.615l-.26.244c-.713.663-1.434 1.317-2.136 1.991a2.121 2.121 0 0 1 -3.585-1.337c-.133.1-.248.173-.357.258l-6.1 4.728a1.485 1.485 0 0 1 -.356.258.446.446 0 0 1 -.3-.015v8.561h6.256a.365.365 0 0 1 .012-.325z"
              fill="#ffcebf"/>
        <path d="m25.237 2.423c-.17.557-.335 1.115-.484 1.678a1.688 1.688 0 0 0 .9 2.09 7.122 7.122 0 0 0 3.818.8v-4.473a.73.73 0 0 1 .016-.294.666.666 0 0 1 .105-.149h-4.359c.067.078.044.215.004.348z"
              fill="#ff6196"/>
        <g fill="#ff87af">
            <path d="m16.482 12.032a2.422 2.422 0 0 1 -.5 1.376 22.671 22.671 0 0 1 -3.726 3.792 1.442 1.442 0 0 1 -1.684.2 1.393 1.393 0 0 1 -.843-1.368 1.624 1.624 0 0 1 .417-.947 35.848 35.848 0 0 1 5.019-3.993.71.71 0 0 1 .829-.034 1.041 1.041 0 0 1 .488.974z"/>
            <path d="m15.284 18.093a1.437 1.437 0 0 1 .448-1.2 38.336 38.336 0 0 1 4.87-3.813c.052-.033.1-.066.157-.1a.837.837 0 0 1 1.025.035.861.861 0 0 1 .242.979 4.39 4.39 0 0 1 -1.168 1.908c-1.105 1.1-2.252 2.164-3.4 3.22a1.124 1.124 0 0 1 -1.364.192 1.512 1.512 0 0 1 -.81-1.221z"/>
            <path d="m22.5 18.754c-.28.3-.568.586-.837.893a1.89 1.89 0 0 0 -.2.38c.148.044.321.16.441.119.611-.205 1.207-.451 1.878-.71-.146.336-.256.646-.411.93a12.189 12.189 0 0 1 -2.371 2.872q-.532.513-1.105.981a1.484 1.484 0 0 1 -2.415-.92 1.1 1.1 0 0 1 .238-.813 22.187 22.187 0 0 1 4.623-3.823.193.193 0 0 1 .065-.013z"/>
        </g>
        <path d="m24.794 14.771 1.711-7.6 1.2.281-.619 1.881c-.578 1.75-1.163 3.5-1.727 5.252-.11.324-.254.384-.565.186z"
              fill="#ff6196"/>
        <path d="m22.862 19.241c.181-.691.361-1.33.513-1.976a4.468 4.468 0 0 1 .826-1.721c.243-.319.516-.192.795-.123.258.063.323.252.334.5a2.845 2.845 0 0 1 -.588 1.907 4.8 4.8 0 0 1 -1.88 1.413z"
              fill="#ff6196"/>
        <path d="m29.993 2.894a3.623 3.623 0 0 0 -.017-.668.291.291 0 0 0 -.116-.151.381.381 0 0 0 -.152-.075c-.032-.006-.077.027-.12.074a.666.666 0 0 0 -.105.149.73.73 0 0 0 -.016.294v4.472a7.122 7.122 0 0 1 -3.818-.8 1.688 1.688 0 0 1 -.9-2.09c.149-.563.314-1.121.484-1.678.04-.133.063-.27 0-.348a.2.2 0 0 0 -.135-.064.3.3 0 0 0 -.182.064.434.434 0 0 0 -.171.19c-.2.6-.376 1.206-.529 1.818a2.148 2.148 0 0 0 -.046.737 2.339 2.339 0 0 0 1.542 2c.189.079.3.157.247.406-.073.316-.144.632-.216.949q-.735 3.222-1.462 6.447a.483.483 0 0 1 -.121.257 3.228 3.228 0 0 0 -.791.92 4.8 4.8 0 0 0 -.53 1.5.981.981 0 0 1 -.558.785c-.417.211-.8.484-1.263.768a12.639 12.639 0 0 0 -.018-1.671 1.062 1.062 0 0 1 .284-.96 4.75 4.75 0 0 0 1.258-2.194 1.294 1.294 0 0 0 -1.208-1.7 1.7 1.7 0 0 0 -.929.264c-.957.646-1.888 1.332-2.812 2.026-.547.412-1.062.868-1.592 1.3a.418.418 0 0 1 -.059-.081.842.842 0 0 0 -.059-.214c-.443-.684-.136-1.181.345-1.692a2.793 2.793 0 0 0 .772-1.951 1.568 1.568 0 0 0 -.327-1.026 1.459 1.459 0 0 0 -.438-.363 1.337 1.337 0 0 0 -1.517.162l-.279.2c-.637.456-1.282.9-1.895 1.388-.895.712-1.769 1.454-2.626 2.214-.4.353-.692.835-1.107 1.163-2.164 1.709-4.351 3.387-6.53 5.076a1.022 1.022 0 0 0 -.205.161.164.164 0 0 0 -.016.029c-.046.107-.085.284-.031.349a.141.141 0 0 0 .047.033.446.446 0 0 0 .3.015 1.485 1.485 0 0 0 .356-.258l6.1-4.728c.109-.085.224-.162.357-.258a2.121 2.121 0 0 0 3.585 1.337c.7-.674 1.423-1.328 2.136-1.991l.26-.244c.436.853.392 1.078-.278 1.615q-6.176 4.942-12.343 9.886c-.175.14-.521.267-.294.565s.436-.009.61-.148q5.786-4.621 11.564-9.254c.1-.08.205-.151.35-.257v.324a1.889 1.889 0 0 0 1.08 1.807 1.762 1.762 0 0 0 2.048-.329c.793-.7 1.578-1.414 2.367-2.12.05-.045.108-.079.2-.149a5.364 5.364 0 0 1 -.065 2.069.523.523 0 0 1 -.182.224q-.978.845-1.963 1.683l-9.632 8.176a1.239 1.239 0 0 0 -.295.276.365.365 0 0 0 -.012.321.376.376 0 0 0 .32.063.294.294 0 0 0 .116-.065c.05-.04.1-.091.145-.132l6.963-5.9c.335-.284.673-.564 1.026-.86a1.04 1.04 0 0 1 .043.146 1.973 1.973 0 0 0 1.29 1.75 1.931 1.931 0 0 0 2.148-.419c.464-.423.922-.853 1.382-1.281.3-.275.59-.551.906-.848a5.925 5.925 0 0 1 .143.624 3.2 3.2 0 0 1 -1.014 2.649c-1.159 1.248-2.344 2.469-3.519 3.7-.077.08-.183.146-.225.241s-.069.281-.019.321l.014.009a.573.573 0 0 0 .338.051.136.136 0 0 0 .081-.051c.028-.029.055-.065.082-.092.952-.984 1.909-1.963 2.854-2.954a13.982 13.982 0 0 0 1.074-1.223 3.411 3.411 0 0 0 .61-3.616.516.516 0 0 1 .074-.386c.065-.112.137-.221.211-.329a4.632 4.632 0 0 0 .587-1 7.547 7.547 0 0 1 1.339-2.4 2.792 2.792 0 0 0 .5-2.469.988.988 0 0 1 0-.489c.506-1.567 1.027-3.129 1.543-4.692q.347-1.05.69-2.094l.213-.647c.454 0 .882-.009 1.308 0 .354.01.462-.156.458-.5-.021-1.38-.013-2.759-.013-4.138zm-17.737 14.306a1.442 1.442 0 0 1 -1.684.2 1.393 1.393 0 0 1 -.843-1.368 1.624 1.624 0 0 1 .417-.947 35.848 35.848 0 0 1 5.019-3.993.852.852 0 0 1 .326-.14.656.656 0 0 1 .238 0 .763.763 0 0 1 .265.106 1.041 1.041 0 0 1 .488.975 2.422 2.422 0 0 1 -.5 1.376 22.671 22.671 0 0 1 -3.726 3.791zm5.2 1.929a1.124 1.124 0 0 1 -1.364.192 1.512 1.512 0 0 1 -.81-1.224 1.437 1.437 0 0 1 .448-1.2 38.336 38.336 0 0 1 4.87-3.813c.052-.033.1-.066.157-.1a.837.837 0 0 1 1.025.035.861.861 0 0 1 .242.979 4.39 4.39 0 0 1 -1.168 1.908c-1.103 1.102-2.25 2.163-3.398 3.219zm5.911 1.241a12.189 12.189 0 0 1 -2.367 2.868q-.532.513-1.105.981a1.484 1.484 0 0 1 -2.415-.92 1.1 1.1 0 0 1 .238-.813 22.187 22.187 0 0 1 4.623-3.823.193.193 0 0 1 .065-.013l.1.1c-.28.3-.568.586-.837.893a1.89 1.89 0 0 0 -.2.38c.148.044.321.16.441.119.483-.162.958-.35 1.467-.55l.411-.16c-.154.34-.264.65-.419.934zm1.373-2.535a4.363 4.363 0 0 1 -1.373 1.152q-.247.138-.507.258c.178-.681.356-1.312.507-1.95l.006-.026a4.468 4.468 0 0 1 .826-1.721c.243-.319.516-.192.795-.123.258.063.323.252.334.5a2.845 2.845 0 0 1 -.586 1.906zm2.34-8.5c-.578 1.75-1.163 3.5-1.727 5.252-.106.329-.25.389-.561.191l1.483-6.593.228-1.012 1.2.281c-.082.247-.161.49-.241.731z"/>
    </g>

    <g id="js">
        <rect x="2" y="2" width="28" height="28" fill="#FFCA28"/>
        <path d="M19 25.2879L21.0615 23.9237C21.2231 24.4313 22.2462 25.6368 23.5385 25.6368C24.8308 25.6368 25.4308 24.931 25.4308 24.463C25.4308 23.1878 24.1112 22.7382 23.4774 22.5223C23.374 22.4871 23.289 22.4581 23.2308 22.4328C23.2009 22.4198 23.1558 22.4025 23.0979 22.3804C22.393 22.1111 19.7923 21.1175 19.7923 18.2373C19.7923 15.065 22.8538 14.7002 23.5462 14.7002C23.9991 14.7002 26.1769 14.7557 27.2615 16.7939L25.2615 18.1898C24.8231 17.3015 24.0946 17.0081 23.6462 17.0081C22.5385 17.0081 22.3077 17.8201 22.3077 18.1898C22.3077 19.227 23.5112 19.6919 24.5273 20.0844C24.7932 20.1871 25.0462 20.2848 25.2615 20.3866C26.3692 20.91 28 21.7666 28 24.463C28 25.8136 26.8672 28.0002 24.0154 28.0002C20.1846 28.0002 19.1692 25.7003 19 25.2879Z"
              fill="#3E3E3E"/>
        <path d="M9 25.5587L11.1487 24.1953C11.317 24.7026 11.9713 25.638 12.9205 25.638C13.8698 25.638 14.3557 24.663 14.3557 24.1953V15.0002H16.9982V24.1953C17.041 25.4636 16.3376 28.0002 13.2332 28.0002C10.379 28.0002 9.19242 26.3039 9 25.5587Z"
              fill="#3E3E3E"/>
    </g>

    <g id="docker">
        <circle cx="16" cy="16" r="14" fill="#1794D4"/>
        <path d="M18 7H16V9H18V7Z" fill="white"/>
        <path d="M10 10H12V12H10V10Z" fill="white"/>
        <path d="M6.00155 16.9414C6.17244 19.8427 7.90027 24 14 24C20.8 24 23.8333 19 24.5 16.5C25.3333 16.5 27.2 16 28 14C27.5 13.5 25.5 13.5 24.5 14C24.5 13.2 24 11.5 23 11C22.3333 11.6667 21.3 13.4 22.5 15C22 16 20.6667 16 20 16H6.9429C6.41342 16 5.97041 16.4128 6.00155 16.9414Z"
              fill="white"/>
        <path d="M9 13H7V15H9V13Z" fill="white"/>
        <path d="M10 13H12V15H10V13Z" fill="white"/>
        <path d="M15 13H13V15H15V13Z" fill="white"/>
        <path d="M16 13H18V15H16V13Z" fill="white"/>
        <path d="M21 13H19V15H21V13Z" fill="white"/>
        <path d="M15 10H13V12H15V10Z" fill="white"/>
        <path d="M16 10H18V12H16V10Z" fill="white"/>
    </g>

    <g id="ansible">
        <path d="M16,29.951a13.952,13.952,0,1,1,.193-27.9A13.951,13.951,0,0,1,16,29.951Zm-2.221-13.13c.1.1.1.1.193.1C16,18.559,18.027,20.1,19.958,21.745a10.928,10.928,0,0,0,1.255.965.99.99,0,0,0,1.545-.676,1.643,1.643,0,0,0-.1-.676L18.9,12.38c-.579-1.352-1.159-2.8-1.738-4.151a.87.87,0,0,0-.579-.579c-.579-.193-.965.1-1.255.676-2.027,4.731-3.958,9.558-5.986,14.289,0,.1-.1.193-.1.29h1.931c.193,0,.193-.1.29-.193.386-.869.676-1.834,1.062-2.7A31.234,31.234,0,0,1,13.779,16.821Z"/>
        <path d="M13.779,16.821c-.386,1.062-.869,2.124-1.255,3.186-.386.869-.772,1.834-1.062,2.7a.355.355,0,0,1-.29.1H9.242c0-.1.1-.193.1-.29,2.027-4.731,3.958-9.558,5.986-14.289.29-.579.676-.869,1.255-.676a.87.87,0,0,1,.579.579c.579,1.352,1.159,2.8,1.738,4.151l3.765,8.979a2.978,2.978,0,0,1,.1.869.99.99,0,0,1-1.545.676,14.191,14.191,0,0,1-1.255-.965c-2.027-1.641-4.055-3.186-5.986-4.827C13.876,16.821,13.876,16.821,13.779,16.821Zm2.51-6.275c-.579,1.545-1.159,2.993-1.834,4.441-.1.1,0,.193.1.29C16,16.435,17.448,17.5,18.9,18.656c.29.193.579.483.869.676h0C18.607,16.435,17.448,13.539,16.29,10.546Z"
              style="fill:#fff"/>
        <path d="M16.29,10.546c1.159,2.993,2.414,5.889,3.572,8.786h0c-.29-.193-.579-.483-.869-.676-1.448-1.159-2.9-2.221-4.344-3.379-.1-.1-.193-.1-.1-.29C15.035,13.539,15.614,12.091,16.29,10.546Z"/>
    </g>

    <g id="terraform">
        <g fill="#7B42BC" fill-rule="evenodd" clip-rule="evenodd">
            <path d="M5.825 2.82l4.35 2.524v5.052L5.825 7.87V2.82zM10.651 5.344v5.052L15 7.87V2.82l-4.349 2.524zM1 0v5.05l4.349 2.527V2.526L1 0zM5.825 13.474L10.174 16v-5.051L5.825 8.423v5.051z"/>
        </g>
    </g>

    <g id="mysql">
        <path fill="#00758F" fill-rule="evenodd" d="M5.46192862,4.04007684 C5.18892668,4.03501656 4.99575061,4.06967946 4.79169495,4.11446291 L4.79169495,4.15152944 L4.82901449,4.15152944 C4.95944313,4.41909158 5.18943271,4.591394 5.35034952,4.82188962 C5.47407329,5.08262038 5.59817658,5.34297163 5.72227987,5.60332288 C5.73493056,5.5909252 5.74745474,5.57865403 5.75959941,5.56625635 C5.99047454,5.40394797 6.0957283,5.14410275 6.09471625,4.74737704 C6.00211318,4.64996671 5.98832392,4.52826705 5.90837155,4.4122602 C5.80235875,4.25754224 5.59615247,4.17012595 5.46192862,4.04007684 L5.46192862,4.04007684 Z M23.478665,23.1369293 C23.6543831,23.2658398 23.772161,23.4657208 24,23.5466852 L24,23.5093657 C23.8800714,23.3573044 23.8495833,23.1474294 23.7395222,22.9880306 C23.5786054,22.8271138 23.4164236,22.6655645 23.2555068,22.5040152 C22.7821179,21.8759083 22.1818425,21.3245911 21.5432356,20.8663831 C21.0345512,20.5006515 19.8944709,20.0072745 19.6819392,19.4148426 C19.6697946,19.4021919 19.6571439,19.3896677 19.6444932,19.3770171 C20.0054174,19.3365348 20.4283301,19.2059797 20.7614228,19.1165393 C21.3210894,18.9665021 21.8214243,19.0054662 22.3990549,18.8560615 C22.6600387,18.781296 22.9203899,18.7066569 23.1808677,18.6329033 L23.1808677,18.4834987 C22.8887632,18.1836773 22.6805328,17.7869515 22.3622414,17.5155942 C21.5283078,16.8061434 20.6188495,16.0966926 19.6818127,15.5056522 C19.1626283,15.1774933 18.5200996,14.9645821 17.969415,14.6865199 C17.7842089,14.5931578 17.4590861,14.5444526 17.3365009,14.3887226 C17.0476856,14.0198284 16.8899314,13.5523853 16.6667732,13.1228943 C16.1997097,12.2230506 15.740363,11.2403448 15.3263059,10.293567 C15.044322,9.6481287 14.8597484,9.01154587 14.5076796,8.43227067 C12.8174206,5.65329311 10.9976185,3.97581132 8.17942382,2.3270466 C7.57927498,1.97649592 6.85742648,1.83809735 6.09471625,1.65719245 C5.68546635,1.6325236 5.27545742,1.60734872 4.86620752,1.58267987 C4.61635635,1.47831166 4.35651113,1.17267094 4.12184079,1.02427832 C3.18796669,0.434503045 0.792811133,-0.848656668 0.10157731,0.838313141 C-0.335124586,1.90286889 0.753847001,2.94174374 1.14361483,3.48142227 C1.4172493,3.85980447 1.76704094,4.2842352 1.96287366,4.70967798 C2.09127818,4.98938478 2.11316388,5.27010364 2.22385744,5.56600333 C2.49432924,6.29518923 2.7293791,7.08838764 3.07929725,7.76241652 C3.25653344,8.10322617 3.45173363,8.46263233 3.67539786,8.76738751 C3.81265788,8.95449125 4.04720171,9.03684725 4.08401522,9.32578906 C3.85465817,9.64749617 3.84150145,10.1466925 3.7125909,10.5541713 C3.13065906,12.3887747 3.35014857,14.6686824 4.19660638,16.0266077 C4.45594557,16.443195 5.06773305,17.3374725 5.90837155,16.9942592 C6.64375629,16.6946908 6.47980332,15.76613 6.69018433,14.9469976 C6.73749792,14.760906 6.70865434,14.624405 6.80176344,14.5003017 L6.80176344,14.5373682 C7.02542767,14.9840642 7.2488389,15.4307601 7.47199711,15.8773296 C7.96815726,16.6759678 8.84826592,17.5111665 9.59415073,18.0739958 C9.98037636,18.3659737 10.2848785,18.8709894 10.7852134,19.0419002 L10.7852134,19.0040746 L10.7478939,19.0040746 C10.6504835,18.8536579 10.4989282,18.790531 10.3759635,18.6694638 C10.0844916,18.3836847 9.76050733,18.0287063 9.51938514,17.7014329 C8.84080201,16.780589 8.24153872,15.7725818 7.69553484,14.7235864 C7.43455106,14.2224925 7.20785066,13.6697838 6.98785512,13.1600874 C6.90322199,12.9633691 6.90423404,12.6662043 6.72737736,12.5643663 C6.48650818,12.9378147 6.13190928,13.2401663 5.94556458,13.6811694 C5.64776729,14.386319 5.60943569,15.2461865 5.49899515,16.1379338 C5.43371758,16.1614641 5.46268766,16.1453977 5.42422956,16.1750003 C4.90555118,16.0502645 4.72350772,15.5164053 4.53096418,15.0584502 C4.04378602,13.9006589 3.95333357,12.0360734 4.38206553,10.7030699 C4.4930121,10.3583386 4.99499157,9.27202362 4.79131543,8.95347919 C4.69441112,8.63544079 4.37510765,8.45187925 4.19635337,8.20885945 C3.97420721,7.90853201 3.75332613,7.5134509 3.59974672,7.16644241 C3.20150293,6.26368901 3.01528474,5.25024206 2.59540827,4.33749461 C2.39451528,3.90142525 2.0550972,3.45966308 1.77627595,3.07166635 C1.46759906,2.64204884 1.12185564,2.32578153 0.882884062,1.80583808 C0.797744903,1.62126448 0.681991069,1.32587082 0.808244978,1.13598393 C0.848094658,1.00783242 0.905022773,0.954446496 1.03190922,0.912572704 C1.24810955,0.746089595 1.84889092,0.967982736 2.07394674,1.06147135 C2.67055338,1.30929841 3.16924367,1.54548684 3.67489184,1.88035066 C3.91740561,2.04126747 4.16295554,2.35272751 4.45607208,2.43887872 L4.79118892,2.43887872 C5.31568662,2.5591868 5.90280525,2.47645128 6.39200751,2.62509691 C7.25744137,2.8881048 8.0329288,3.29722819 8.73719284,3.74202653 C10.8826237,5.09653615 12.6370217,7.02526068 13.8370664,9.32578906 C14.030116,9.69620133 14.1138635,10.0496617 14.2836358,10.4427187 C14.6265961,11.2350315 15.0591233,12.0501156 15.4004389,12.825097 C15.7408691,13.5978013 16.0728232,14.3779695 16.5541821,15.0213837 C16.8071959,15.3594102 17.7850944,15.5408211 18.2297663,15.7288104 C18.5412263,15.8602511 19.0514287,15.9976376 19.3460633,16.1750003 C19.9100312,16.5151775 20.4556556,16.9197466 20.9842015,17.292183 C21.2483479,17.4785277 22.0606489,17.886639 22.1006251,18.2223884 C20.7916579,18.1877255 19.7916207,18.3092986 18.9366869,18.6695903 C18.6936671,18.7716814 18.3064295,18.7747176 18.2664533,19.0787137 C18.4000446,19.2186304 18.4211712,19.4281259 18.527437,19.6000488 C18.7309867,19.9304848 19.0755915,20.3728795 19.3833829,20.6053993 C19.7195118,20.8590456 20.0657612,21.130403 20.4255469,21.3498925 C21.0663045,21.7407989 21.7818276,21.9638306 22.3984224,22.3551165 C22.7632683,22.5861182 23.1241926,22.8764515 23.478665,23.1369293 L23.478665,23.1369293 Z"/>
    </g>

    <g id="python">
        <g id="Page-1" stroke="none" stroke-width="1" fill="none" fill-rule="evenodd">
            <g id="Dribbble-Light-Preview" transform="translate(-340.000000, -7599.000000)" fill="#000000">
                <g id="icons" transform="translate(56.000000, 160.000000)">
                    <path d="M296.744,7457.45798 C296.262,7457.45798 295.872,7457.06594 295.872,7456.58142 C295.872,7456.0969 296.262,7455.70587 296.744,7455.70587 C297.226,7455.70587 297.616,7456.0969 297.616,7456.58142 C297.616,7457.06594 297.226,7457.45798 296.744,7457.45798 M294.072,7459 C299.15,7459 298.833,7456.78649 298.833,7456.78649 L298.827,7454.49357 L293.982,7454.49357 L293.982,7453.80499 L300.751,7453.80499 C300.751,7453.80499 304,7454.17591 304,7449.02614 C304,7443.87636 301.165,7444.0583 301.165,7444.0583 L299.472,7444.0583 L299.472,7446.44873 C299.472,7446.44873 299.563,7449.29855 296.682,7449.29855 L291.876,7449.29855 C291.876,7449.29855 289.176,7449.25533 289.176,7451.9222 L289.176,7456.33112 C289.176,7456.33112 288.766,7459 294.072,7459 M291.257,7440.54202 C291.739,7440.54202 292.128,7440.93406 292.128,7441.41858 C292.128,7441.9031 291.739,7442.29413 291.257,7442.29413 C290.775,7442.29413 290.385,7441.9031 290.385,7441.41858 C290.385,7440.93406 290.775,7440.54202 291.257,7440.54202 M293.928,7439 C288.851,7439 289.168,7441.21351 289.168,7441.21351 L289.174,7443.50643 L294.019,7443.50643 L294.019,7444.19501 L287.249,7444.19501 C287.249,7444.19501 284,7443.82409 284,7448.97386 C284,7454.12364 286.836,7453.9417 286.836,7453.9417 L288.528,7453.9417 L288.528,7451.55127 C288.528,7451.55127 288.437,7448.70145 291.319,7448.70145 L296.124,7448.70145 C296.124,7448.70145 298.824,7448.74467 298.824,7446.0778 L298.824,7441.66888 C298.824,7441.66888 299.234,7439 293.928,7439" id="python-[#127]">

                    </path>
                </g>
            </g>
        </g>
    </g>

    <g id="aws">
        <path fill="#252F3E" d="M4.51 7.687c0 .197.02.357.058.475.042.117.096.245.17.384a.233.233 0 01.037.123c0 .053-.032.107-.1.16l-.336.224a.255.255 0 01-.138.048c-.054 0-.107-.026-.16-.074a1.652 1.652 0 01-.192-.251 4.137 4.137 0 01-.165-.315c-.415.491-.936.737-1.564.737-.447 0-.804-.129-1.064-.385-.261-.256-.394-.598-.394-1.025 0-.454.16-.822.484-1.1.325-.278.756-.416 1.304-.416.18 0 .367.016.564.042.197.027.4.07.612.118v-.39c0-.406-.085-.689-.25-.854-.17-.166-.458-.246-.868-.246-.186 0-.377.022-.574.07a4.23 4.23 0 00-.575.181 1.525 1.525 0 01-.186.07.326.326 0 01-.085.016c-.075 0-.112-.054-.112-.166v-.262c0-.085.01-.15.037-.186a.399.399 0 01.15-.113c.185-.096.409-.176.67-.24.26-.07.537-.101.83-.101.633 0 1.096.144 1.394.432.293.288.442.726.442 1.314v1.73h.01zm-2.161.811c.175 0 .356-.032.548-.096.191-.064.362-.182.505-.342a.848.848 0 00.181-.341c.032-.129.054-.283.054-.465V7.03a4.43 4.43 0 00-.49-.09 3.996 3.996 0 00-.5-.033c-.357 0-.618.07-.793.214-.176.144-.26.347-.26.614 0 .25.063.437.196.566.128.133.314.197.559.197zm4.273.577c-.096 0-.16-.016-.202-.054-.043-.032-.08-.106-.112-.208l-1.25-4.127a.938.938 0 01-.049-.214c0-.085.043-.133.128-.133h.522c.1 0 .17.016.207.053.043.032.075.107.107.208l.894 3.535.83-3.535c.026-.106.058-.176.1-.208a.365.365 0 01.214-.053h.425c.102 0 .17.016.213.053.043.032.08.107.101.208l.841 3.578.92-3.578a.458.458 0 01.107-.208.346.346 0 01.208-.053h.495c.085 0 .133.043.133.133 0 .027-.006.054-.01.086a.76.76 0 01-.038.133l-1.283 4.127c-.032.107-.069.177-.111.209a.34.34 0 01-.203.053h-.457c-.101 0-.17-.016-.213-.053-.043-.038-.08-.107-.101-.214L8.213 5.37l-.82 3.439c-.026.107-.058.176-.1.213-.043.038-.118.054-.213.054h-.458zm6.838.144a3.51 3.51 0 01-.82-.096c-.266-.064-.473-.134-.612-.214-.085-.048-.143-.101-.165-.15a.378.378 0 01-.031-.149v-.272c0-.112.042-.166.122-.166a.3.3 0 01.096.016c.032.011.08.032.133.054.18.08.378.144.585.187.213.042.42.064.633.064.336 0 .596-.059.777-.176a.575.575 0 00.277-.508.52.52 0 00-.144-.373c-.095-.102-.276-.193-.537-.278l-.772-.24c-.388-.123-.676-.305-.851-.545a1.275 1.275 0 01-.266-.774c0-.224.048-.422.143-.593.096-.17.224-.32.384-.438.16-.122.34-.213.553-.277.213-.064.436-.091.67-.091.118 0 .24.005.357.021.122.016.234.038.346.06.106.026.208.052.303.085.096.032.17.064.224.096a.46.46 0 01.16.133.289.289 0 01.047.176v.251c0 .112-.042.171-.122.171a.552.552 0 01-.202-.064 2.427 2.427 0 00-1.022-.208c-.303 0-.543.048-.708.15-.165.1-.25.256-.25.475 0 .149.053.277.16.379.106.101.303.202.585.293l.756.24c.383.123.66.294.825.513.165.219.244.47.244.748 0 .23-.047.437-.138.619a1.436 1.436 0 01-.388.47c-.165.133-.362.23-.591.299-.24.075-.49.112-.761.112z"/>

        <g fill="#F90" fill-rule="evenodd" clip-rule="evenodd">

            <path d="M14.465 11.813c-1.75 1.297-4.294 1.986-6.481 1.986-3.065 0-5.827-1.137-7.913-3.027-.165-.15-.016-.353.18-.235 2.257 1.313 5.04 2.109 7.92 2.109 1.941 0 4.075-.406 6.039-1.239.293-.133.543.192.255.406z"/>

            <path d="M15.194 10.98c-.223-.287-1.479-.138-2.048-.069-.17.022-.197-.128-.043-.24 1-.705 2.645-.502 2.836-.267.192.24-.053 1.89-.99 2.68-.143.123-.281.06-.218-.1.213-.53.687-1.72.463-2.003z"/>

        </g>
    </g>
</svg>
