<svg xmlns="http://www.w3.org/2000/svg">

    <!--  Logo  -->
    <g id="logo-davys">
        <path fill="black" fill-rule="evenodd" clip-rule="evenodd"
              d="M39.5071 8.91905C39.5071 10.6015 39.0571 12.3966 38.1572 14.311C37.2573 16.2232 36.0581 18.1241 34.5597 20.0138C33.0636 21.9012 31.3469 23.7053 29.4121 25.4238C27.4772 27.1423 25.4816 28.6581 23.423 29.9734C21.3667 31.2887 19.3216 32.336 17.29 33.1176C15.2584 33.8969 13.4023 34.2865 11.7216 34.2865C11.2109 34.2865 10.7182 34.2009 10.2435 34.0298C9.76878 33.8586 9.53255 33.4689 9.53255 32.8608C9.53255 32.3248 9.72829 31.8248 10.1175 31.3631C10.5067 30.8991 11.0062 30.4802 11.6136 30.1018C12.2211 29.7234 12.9231 29.3946 13.7127 29.1153C14.5047 28.836 15.2899 28.5905 16.0683 28.3833C16.8468 28.1761 17.6027 28.0184 18.3317 27.9081C19.0628 27.7977 19.6816 27.7324 20.1945 27.7076C20.487 27.7076 20.6332 27.7932 20.6332 27.9644C20.6332 28.0612 20.5477 28.122 20.3768 28.1468C20.3048 28.1468 20.0123 28.1783 19.5016 28.2391C18.9909 28.3 18.3632 28.3968 17.6207 28.5319C16.8783 28.6671 16.0931 28.8495 15.2651 29.0792C14.4372 29.3112 13.6655 29.5973 12.9455 29.9374C12.2279 30.2775 11.6361 30.6739 11.1749 31.1243C10.7115 31.5748 10.482 32.0928 10.482 32.6784C10.482 33.0433 10.6395 33.3113 10.9567 33.4825C11.2739 33.6536 11.6744 33.7392 12.1626 33.7392C13.7195 33.7392 15.4361 33.3608 17.3102 32.6063C19.1843 31.8518 21.0652 30.827 22.9506 29.5365C24.8359 28.2459 26.6628 26.7639 28.4267 25.095C30.1905 23.426 31.7564 21.6782 33.1176 19.8494C34.481 18.0228 35.5766 16.1827 36.4046 14.329C37.2325 12.4777 37.6465 10.7231 37.6465 9.06544C37.6465 7.84696 37.3855 6.71406 36.8613 5.66675C36.3371 4.61944 35.4866 3.71177 34.3055 2.94374C33.1243 2.17571 31.5967 1.5721 29.7226 1.13515C27.8485 0.695958 25.5604 0.47749 22.8583 0.47749C21.9584 0.47749 20.7952 0.563073 19.3711 0.734247C17.9469 0.90542 16.4328 1.17795 14.8264 1.55633C13.22 1.93471 11.5956 2.41445 9.95102 3.00004C8.30864 3.58564 6.82825 4.2906 5.51434 5.11944C4.20044 5.94828 3.12952 6.89875 2.30158 7.97084C1.47364 9.04292 1.05967 10.2502 1.05967 11.5903C1.05967 11.9078 1.10917 12.1759 1.20591 12.3943C1.30265 12.6128 1.4129 12.7975 1.53439 12.9416C1.65588 13.088 1.76612 13.2097 1.86286 13.3065C1.95961 13.4033 2.0091 13.5024 2.0091 13.5993C2.0091 13.7457 1.93711 13.8178 1.79087 13.8178C1.4264 13.7457 1.12267 13.6353 0.877436 13.4889C0.659202 13.3673 0.456717 13.1714 0.27448 12.9033C0.0922435 12.6353 0 12.2817 0 11.8425C0 10.5024 0.389221 9.27716 1.16766 8.16904C1.94611 7.06092 2.97428 6.06766 4.25219 5.18926C5.53009 4.31313 6.98349 3.54961 8.61462 2.90545C10.2457 2.25905 11.9129 1.7185 13.616 1.2793C15.3191 0.840107 16.9863 0.518026 18.6174 0.310816C20.2485 0.103606 21.7087 0 22.9978 0C26.0171 0 28.5729 0.225228 30.6652 0.675685C32.7576 1.12614 34.463 1.75453 35.7769 2.5586C37.0908 3.36266 38.0402 4.30637 38.6252 5.39197C39.2146 6.47532 39.5071 7.65101 39.5071 8.91905ZM20.4465 24.9643C20.4465 24.3787 20.4398 23.5026 20.4285 22.3337C20.4173 21.1647 20.397 19.8539 20.3745 18.4034C20.3498 16.9529 20.3318 15.4372 20.3205 13.8538C20.3093 12.2704 20.289 10.7772 20.2665 9.37626C20.2418 7.97534 20.2238 6.72532 20.2125 5.63071C20.2013 4.53385 20.1945 3.7433 20.1945 3.25455C20.1945 2.81536 20.0123 2.59689 19.6478 2.59689C19.4768 2.59689 19.3126 2.62842 19.1551 2.68923C18.9976 2.75004 18.9189 2.9505 18.9189 3.29285L19.2473 25.6986C19.2473 25.9666 19.2901 26.1558 19.3756 26.2661C19.4611 26.3765 19.5758 26.4553 19.7221 26.5026C19.9178 26.5026 20.0865 26.3923 20.2328 26.1738C20.3745 25.9508 20.4465 25.5499 20.4465 24.9643ZM50.2343 22.1873C50.2343 21.8224 50.1736 21.5228 50.0521 21.2908C49.9306 21.0589 49.7348 20.944 49.4671 20.944C49.0531 20.944 48.7359 21.1444 48.5177 21.5476C48.2995 21.9508 48.2005 22.4553 48.2252 23.0634C48.2972 24.354 48.5289 25.4396 48.9182 26.3157C49.3321 25.7549 49.6539 25.122 49.8856 24.4148C50.1196 23.7098 50.2343 22.9665 50.2343 22.1873ZM60.0931 22.1512L59.4001 21.9688C59.2044 22.3584 59.0109 22.7481 58.8152 23.1377C58.6194 23.5274 58.4012 23.9057 58.1582 24.2706C57.1368 25.7571 56.0951 26.89 55.0355 27.6693C53.9758 28.4486 52.9836 28.8382 52.0589 28.8382C50.8418 28.8382 49.8923 28.2054 49.2106 26.9373C49.6966 26.2797 50.0858 25.5432 50.3783 24.7256C50.6708 23.9103 50.817 22.9891 50.817 21.9665C50.817 20.944 50.3783 20.4305 49.5031 20.4305C48.8709 20.4305 48.3827 20.7706 48.043 21.453C47.7032 22.1354 47.5323 22.9395 47.5323 23.8652C47.5323 25.2796 47.728 26.4238 48.1172 27.2999C47.4108 28.0545 46.6076 28.64 45.7076 29.0545C44.8077 29.4689 43.9438 29.6761 43.1158 29.6761C42.0944 29.6761 41.2417 29.3473 40.56 28.6896C39.8783 28.0319 39.5386 26.9711 39.5386 25.5094C39.5386 24.7549 39.6848 23.9868 39.9773 23.2075C40.2698 22.4282 40.6838 21.7143 41.2192 21.0701C41.7547 20.4237 42.4049 19.9012 43.1721 19.498C43.9393 19.0949 44.7965 18.8944 45.7459 18.8944C46.4523 18.8944 46.9878 18.9732 47.3523 19.1309C47.7167 19.2886 48.0452 19.5025 48.3377 19.7706H48.3737C48.3984 19.7706 48.4232 19.7818 48.4457 19.8066C48.5177 19.8066 48.6032 19.7818 48.7022 19.7345C48.7989 19.685 48.8484 19.6129 48.8484 19.516C48.8484 19.2976 48.5919 19.0588 48.0812 18.8043C47.5705 18.5476 46.8528 18.4214 45.9281 18.4214C44.7852 18.4214 43.7255 18.6647 42.7514 19.1534C41.7772 19.6399 40.9312 20.257 40.2135 21.0003C39.4958 21.7436 38.9356 22.5724 38.5329 23.4868C38.1302 24.4013 37.93 25.2954 37.93 26.1738C37.93 26.9058 38.0515 27.5454 38.2944 28.0927C38.5374 28.64 38.8614 29.0928 39.2619 29.4441C39.6646 29.7977 40.1393 30.059 40.686 30.2302C41.2327 30.4013 41.8109 30.4869 42.4206 30.4869C43.4421 30.4869 44.4837 30.2684 45.5434 29.8293C46.6031 29.3901 47.557 28.7459 48.4097 27.8923C49.1409 29.2076 50.1983 29.8653 51.5865 29.8653C52.6821 29.8653 53.8633 29.4148 55.1277 28.5139C56.3944 27.613 57.6475 26.2346 58.8894 24.3832C59.1324 24.0184 59.3529 23.6467 59.5464 23.2684C59.7399 22.8877 59.9221 22.5161 60.0931 22.1512ZM68.1565 23.7954C68.1565 23.381 68.1137 22.9846 68.0283 22.6084C67.9428 22.23 67.8393 21.9012 67.7178 21.6219C67.5963 21.3426 67.4613 21.1174 67.3151 20.9462C67.1688 20.7751 67.0473 20.6895 66.9506 20.6895C66.7323 20.6895 66.6221 20.9688 66.6221 21.5296C66.6221 22.1625 66.7571 22.7301 67.0248 23.2301C67.2926 23.7301 67.657 24.149 68.1205 24.4913C68.1452 24.4418 68.1565 24.3562 68.1565 24.2346V23.7954ZM75.239 21.8584C74.6788 23.3945 73.9498 24.4891 73.0476 25.149C72.1477 25.8067 71.2343 26.1355 70.3096 26.1355C69.7246 26.1355 69.1419 26.0139 68.557 25.7706C68.2892 26.4035 67.954 27.0139 67.5535 27.5972C67.1508 28.1828 66.7143 28.6941 66.2396 29.1333C65.7649 29.5725 65.2655 29.9261 64.7435 30.1941C64.2193 30.4621 63.6906 30.5973 63.1551 30.5973C62.5229 30.5973 62.0122 30.2437 61.6207 29.5365C61.2315 28.8292 60.9143 27.9711 60.6713 26.9598C60.4283 25.9486 60.2641 24.8832 60.1786 23.7616C60.0931 22.64 60.0503 21.667 60.0503 20.8381C60.0503 20.498 60.1178 20.2953 60.2506 20.2345C60.3856 20.1737 60.6105 20.1422 60.9255 20.1422C61.1933 20.1422 61.3575 20.2458 61.4182 20.453C61.479 20.6602 61.5105 20.7998 61.5105 20.8742C61.5105 21.5318 61.5285 22.3607 61.5645 23.3607C61.6005 24.3607 61.6927 25.3224 61.839 26.2481C61.9852 27.1738 62.1922 27.9711 62.4599 28.6423C62.7276 29.3112 63.1056 29.6468 63.5916 29.6468C64.127 29.6468 64.6265 29.5252 65.0877 29.2819C65.5512 29.0387 65.9697 28.7211 66.3476 28.3315C66.7256 27.9418 67.0473 27.4914 67.3151 26.9801C67.5828 26.4688 67.7898 25.9441 67.936 25.408C67.3286 25.0184 66.8336 24.5116 66.4579 23.8922C66.0821 23.2729 65.8909 22.5701 65.8909 21.7908C65.8909 21.0116 66.0124 20.444 66.2554 20.0904C66.4984 19.7368 66.7908 19.5611 67.1328 19.5611C67.6188 19.5611 68.0935 19.8584 68.557 20.4575C69.0204 21.0544 69.2499 21.8156 69.2499 22.7413C69.2499 23.4733 69.1284 24.2031 68.8854 24.935C69.3962 25.131 69.8844 25.2278 70.3456 25.2278C71.1488 25.2278 71.9452 24.9418 72.7372 24.3697C73.5291 23.7976 74.1681 22.8292 74.654 21.4643L75.239 21.8584ZM88.414 44.9961C88.414 44.3137 88.3173 43.5276 88.1215 42.638C87.9258 41.7483 87.6828 40.7911 87.3903 39.7686C87.0979 38.746 86.7761 37.674 86.4229 36.5523C86.0697 35.4307 85.7345 34.2978 85.4195 33.1536C84.4205 34.2753 83.4846 35.3406 82.6072 36.3519C81.7297 37.3631 80.9693 38.3924 80.3259 39.4398C79.6802 40.4871 79.1694 41.5839 78.7915 42.7303C78.4135 43.8767 78.2245 45.1425 78.2245 46.5322C78.2245 47.2867 78.3775 47.9759 78.6812 48.5975C78.985 49.2192 79.3922 49.7552 79.9051 50.2057C80.4158 50.6561 80.9873 51.0097 81.6218 51.2665C82.254 51.5233 82.8997 51.6494 83.5566 51.6494C84.1641 51.6494 84.7625 51.5278 85.3452 51.2845C85.9302 51.0413 86.4522 50.6516 86.9156 50.1156C87.3791 49.5795 87.7436 48.8903 88.0113 48.0502C88.279 47.2056 88.414 46.1898 88.414 44.9961ZM93.5256 22.1512L92.8327 21.9688C92.6369 22.3584 92.4367 22.7413 92.2297 23.1197C92.0227 23.4981 91.809 23.881 91.5908 24.2706C90.8596 25.586 90.0271 26.8112 89.089 27.9441C88.1508 29.077 87.1721 30.1919 86.1507 31.2887C85.8829 30.3135 85.6512 29.309 85.4577 28.2729C85.262 27.2369 85.2012 26.1355 85.2755 24.9643L85.4937 21.0544C85.5185 20.7368 85.451 20.4868 85.2935 20.3043C85.136 20.1219 84.9583 20.0183 84.7648 19.9935C84.569 19.9935 84.3576 20.1152 84.1258 20.3584C83.8941 20.6016 83.7794 21.1872 83.7794 22.1129C83.8041 22.5994 83.8221 23.0566 83.8333 23.4846C83.8446 23.9103 83.8761 24.2819 83.9256 24.5994C83.9503 24.9643 83.9863 25.2932 84.0358 25.5859C83.8896 26.2684 83.6579 26.854 83.3429 27.3405C83.0752 27.7797 82.7107 28.1873 82.2472 28.5657C81.7837 28.9441 81.1763 29.1333 80.4226 29.1333C79.4732 29.1333 78.7307 28.8112 78.1953 28.1648C77.6598 27.5184 77.2571 26.7391 76.9893 25.8247C76.7216 24.9103 76.5574 23.9418 76.4966 22.9192C76.4359 21.8967 76.4044 21.0183 76.4044 20.2886C76.4044 20.0701 76.3189 19.9597 76.1479 19.9597C75.9769 19.9597 75.7879 20.0566 75.581 20.2525C75.374 20.4485 75.2592 20.6557 75.2345 20.8742C75.2097 20.9958 75.1985 21.1535 75.1985 21.3494C75.1985 21.5454 75.1985 21.7638 75.1985 22.0071C75.1985 22.7143 75.248 23.5431 75.3447 24.4936C75.4415 25.4441 75.6484 26.3585 75.9657 27.2346C76.2829 28.113 76.7261 28.854 77.2976 29.4644C77.869 30.0748 78.6295 30.3788 79.5789 30.3788C80.3821 30.3788 81.0705 30.1964 81.642 29.8315C82.2135 29.4666 82.6949 29.0522 83.0842 28.5882C83.4734 28.1243 83.7659 27.6806 83.9616 27.2549C84.1573 26.8292 84.2653 26.5544 84.2901 26.4328C84.2901 27.3337 84.3756 28.2797 84.5465 29.2662C84.7175 30.2527 84.9358 31.2707 85.2035 32.318C84.1573 33.4397 83.1404 34.5658 82.155 35.6987C81.1695 36.8316 80.2921 38.0005 79.5272 39.2078C78.76 40.415 78.1458 41.674 77.6823 42.9916C77.2188 44.3069 76.9893 45.7079 76.9893 47.1944C76.9893 48.0953 77.1468 48.8993 77.4641 49.6066C77.7813 50.3138 78.1998 50.9039 78.724 51.3791C79.2482 51.8543 79.8444 52.2192 80.5126 52.476C81.183 52.7327 81.8827 52.8589 82.6117 52.8589C83.4149 52.8589 84.2181 52.6944 85.0213 52.3656C85.8244 52.0368 86.5421 51.5255 87.1744 50.8295C87.8066 50.1358 88.3173 49.2575 88.7087 48.1989C89.098 47.1381 89.2937 45.879 89.2937 44.415C89.2937 43.2709 89.197 42.174 89.0012 41.1245C88.8055 40.0772 88.5625 39.0524 88.27 38.0546C87.9775 37.0546 87.6626 36.0681 87.3206 35.0951C86.9809 34.1199 86.6636 33.1221 86.3712 32.0973C87.3453 31.0004 88.324 29.8315 89.3094 28.5882C90.2949 27.345 91.2983 25.9441 92.322 24.3855C92.565 23.9711 92.7854 23.5814 92.9789 23.2165C93.1724 22.8449 93.3546 22.4913 93.5256 22.1512ZM98.4123 19.2638C98.4123 19.3359 98.2593 19.453 97.9556 19.6106C97.6518 19.7683 97.2739 19.9642 96.8239 20.1962C96.3739 20.4282 95.8925 20.6895 95.3817 20.9823C94.871 21.2751 94.4076 21.5904 93.9936 21.9327C93.2624 21.7368 92.8979 21.5071 92.8979 21.239C92.8979 20.9958 93.1229 20.7571 93.5729 20.5273C94.0228 20.2976 94.5516 20.0836 95.1613 19.8877C95.7687 19.6917 96.3672 19.5341 96.9499 19.4124C97.5348 19.2908 97.9601 19.23 98.2278 19.23C98.3515 19.2255 98.4123 19.239 98.4123 19.2638ZM109 22.1512C108.829 22.5161 108.654 22.8877 108.471 23.2661C108.289 23.6445 108.075 24.0026 107.832 24.3449C107.101 25.4418 106.201 26.3968 105.13 27.2144C104.059 28.0297 102.934 28.7121 101.753 29.2617C100.572 29.809 99.3797 30.2189 98.176 30.4869C96.9701 30.7549 95.8565 30.8901 94.835 30.8901C94.3243 30.8901 94.0678 30.7932 94.0678 30.5973C94.0678 30.4757 94.1286 30.3833 94.2501 30.3225C94.3716 30.2617 94.4931 30.2302 94.6146 30.2302C95.2715 30.1806 95.9779 30.0297 96.7316 29.7729C97.4853 29.5162 98.185 29.2054 98.8307 28.8405C99.4764 28.4756 100.012 28.0792 100.437 27.6536C100.862 27.2279 101.076 26.8067 101.076 26.3923C101.076 25.9283 100.84 25.5522 100.365 25.2594C99.8904 24.9666 99.2942 24.7166 98.5765 24.5094C97.8588 24.3021 97.0849 24.1197 96.2569 23.9621C95.429 23.8044 94.6573 23.6332 93.9374 23.4508C93.2197 23.2684 92.6234 23.0431 92.1487 22.7751C91.674 22.5071 91.4378 22.167 91.4378 21.7526C91.4378 21.3629 91.7168 20.9553 92.277 20.5273C92.8372 20.1016 93.5121 19.7165 94.3041 19.3764C95.096 19.0363 95.9037 18.7548 96.7316 18.5363C97.5596 18.3178 98.2413 18.2075 98.7768 18.2075C99.337 18.2075 99.7262 18.239 99.9444 18.2998C100.163 18.3606 100.273 18.453 100.273 18.5746C100.273 18.7705 100.066 18.9958 99.6519 19.2503C99.238 19.507 98.7385 19.7931 98.1558 20.1084C97.5708 20.426 96.9566 20.7548 96.3109 21.0949C95.6652 21.435 95.1118 21.7773 94.6505 22.1174C95.3322 22.2886 96.1242 22.4643 97.0241 22.6467C97.9241 22.8292 98.77 23.0611 99.5619 23.3404C100.354 23.6197 101.022 23.9553 101.571 24.3449C102.118 24.7346 102.392 25.2211 102.392 25.8067C102.392 26.1715 102.257 26.5432 101.99 26.9216C101.722 27.2999 101.418 27.6468 101.076 27.9621C100.687 28.3022 100.237 28.6446 99.7262 28.9846C99.7262 29.0342 99.7869 29.0567 99.9084 29.0567C100.104 29.0567 100.487 28.9644 101.058 28.7819C101.63 28.5995 102.275 28.3135 102.993 27.9238C103.711 27.5342 104.442 27.0342 105.184 26.4261C105.927 25.8179 106.566 25.0747 107.101 24.1963C107.319 23.8314 107.526 23.4598 107.722 23.0814C107.918 22.703 108.111 22.3314 108.307 21.9665L109 22.1512Z"
        />
    </g>

    <g id="link-chain">
        <path d="M11.2864 8.71333C10.6038 8.03103 9.67822 7.64774 8.71309 7.64774C7.74797 7.64774 6.82235 8.03103 6.13976 8.71333L3.56559 11.2867C2.88299 11.9693 2.49951 12.8951 2.49951 13.8604C2.49951 14.8258 2.88299 15.7516 3.56559 16.4342C4.24819 17.1168 5.174 17.5002 6.13934 17.5002C7.10469 17.5002 8.03049 17.1168 8.71309 16.4342L9.99976 15.1475" stroke="black" stroke-width="1.66667" stroke-linecap="round" stroke-linejoin="round"/>
        <path d="M8.71289 11.2867C9.39548 11.969 10.3211 12.3523 11.2862 12.3523C12.2513 12.3523 13.177 11.969 13.8596 11.2867L16.4337 8.71334C17.1163 8.03074 17.4998 7.10493 17.4998 6.13959C17.4998 5.17424 17.1163 4.24844 16.4337 3.56584C15.7511 2.88324 14.8253 2.49976 13.86 2.49976C12.8946 2.49976 11.9688 2.88324 11.2862 3.56584L9.99956 4.8525" stroke="black" stroke-width="1.66667" stroke-linecap="round" stroke-linejoin="round"/>
    </g>

    <g id="html">
        <path d="M22.1323 102.004L13.7061 7.5H106.294L97.856 101.989L59.9436 112.5L22.1323 102.004Z" fill="#E44F26"/>
        <path d="M60 104.468L90.6375 95.9738L97.845 15.2288H60V104.468Z" fill="#F1662A"/>
        <path d="M60 50.2762H44.6625L43.605 38.4075H60V26.8162H30.9375L31.215 29.9287L34.0613 61.8675H60V50.2762ZM60 80.3775L59.9475 80.3925L47.04 76.9087L46.215 67.665H34.5787L36.2025 85.86L59.9475 92.4525L60 92.4375V80.3775Z" fill="#EBEBEB"/>
        <path d="M59.959 50.2762V61.8675H74.2315L72.889 76.9012L59.959 80.3887V92.4487L83.7227 85.86L83.8952 83.9025L86.6177 53.3887L86.9027 50.2762H59.959ZM59.959 26.8162V38.4075H87.9565L88.189 35.805L88.7177 29.9287L88.9952 26.8162H59.959Z" fill="white"/>
    </g>

    <g id="css">
        <path d="M22.1325 101.154L13.71 7.4375H106.29L97.8562 101.139L59.9437 111.562L22.1325 101.154Z" fill="#1572B6"/>
        <path d="M60 103.597L90.6375 95.174L97.845 15.1019H60V103.597Z" fill="#33A9DC"/>
        <path d="M60 49.054H75.3375L76.395 37.2842H60V25.7896H89.0625L88.785 28.8724L85.9387 60.5487H60V49.054Z" fill="white"/>
        <path d="M60.0711 78.9045L60.0186 78.9193L47.1112 75.4609L46.2862 66.2942H34.6499L36.2737 84.3413L60.0149 90.8788L60.0711 90.864V78.9045Z" fill="#EBEBEB"/>
        <path d="M74.3513 60.0615L72.9563 75.4534L60.03 78.9119V90.8714L83.79 84.3412L83.9663 82.4001L85.98 60.0615H74.3513Z" fill="white"/>
        <path d="M60.0411 25.7896V37.2842H32.0436L31.8111 34.6997L31.2824 28.8724L31.0049 25.7896H60.0411ZM59.9999 49.054V60.5487H47.2536L47.0211 57.9642L46.4961 52.1369L46.2186 49.054H59.9999Z" fill="#EBEBEB"/>
    </g>

    <g id="place-about">
        <path d="M3.3335 1.5V10.5H7.3335V8.75H8.66683V10.5H12.6668V1.5H3.3335ZM4.66683 2.5H6.00016V3.5H4.66683V2.5ZM7.3335 2.5H8.66683V3.5H7.3335V2.5ZM10.0002 2.5H11.3335V3.5H10.0002V2.5ZM4.66683 4.5H6.00016V5.5H4.66683V4.5ZM7.3335 4.5H8.66683V5.5H7.3335V4.5ZM10.0002 4.5H11.3335V5.5H10.0002V4.5ZM4.66683 6.5H6.00016V7.5H4.66683V6.5ZM7.3335 6.5H8.66683V7.5H7.3335V6.5ZM10.0002 6.5H11.3335V7.5H10.0002V6.5ZM4.66683 8.5H6.00016V9.5H4.66683V8.5ZM10.0002 8.5H11.3335V9.5H10.0002V8.5Z"
              fill="#A7A7A7"/>
    </g>

    <g id="location-about">
        <path d="M8 6.75C7.50555 6.75 7.0222 6.64003 6.61108 6.43401C6.19995 6.22798 5.87952 5.93514 5.6903 5.59253C5.50108 5.24992 5.45157 4.87292 5.54804 4.50921C5.6445 4.14549 5.8826 3.8114 6.23223 3.54918C6.58187 3.28695 7.02732 3.10838 7.51228 3.03603C7.99723 2.96368 8.4999 3.00081 8.95671 3.14273C9.41353 3.28464 9.80397 3.52496 10.0787 3.83331C10.3534 4.14165 10.5 4.50416 10.5 4.875C10.4992 5.3721 10.2356 5.84867 9.76689 6.20017C9.29822 6.55167 8.6628 6.74941 8 6.75ZM8 3.75C7.70333 3.75 7.41332 3.81598 7.16665 3.9396C6.91997 4.06321 6.72771 4.23892 6.61418 4.44448C6.50065 4.65005 6.47095 4.87625 6.52882 5.09448C6.5867 5.31271 6.72956 5.51316 6.93934 5.6705C7.14912 5.82783 7.41639 5.93498 7.70737 5.97838C7.99834 6.02179 8.29994 5.99951 8.57403 5.91437C8.84812 5.82922 9.08238 5.68502 9.24721 5.50002C9.41203 5.31501 9.5 5.09751 9.5 4.875C9.4996 4.57672 9.34144 4.29075 9.06022 4.07983C8.779 3.86892 8.3977 3.7503 8 3.75Z"
              fill="#A7A7A7"/>
        <path d="M8.00001 11.25L3.78201 7.51912C3.7234 7.4631 3.66539 7.40673 3.60801 7.35C2.8875 6.63817 2.49826 5.76871 2.50001 4.875C2.50001 3.78098 3.07947 2.73177 4.11092 1.95818C5.14237 1.1846 6.54132 0.75 8.00001 0.75C9.4587 0.75 10.8576 1.1846 11.8891 1.95818C12.9205 2.73177 13.5 3.78098 13.5 4.875C13.5018 5.7683 13.1127 6.63737 12.3925 7.34888L12.392 7.35C12.392 7.35 12.242 7.49775 12.2195 7.51763L8.00001 11.25ZM4.40601 6.89813C4.40701 6.89813 4.52301 7.01362 4.54951 7.03837L8.00001 10.0905L11.455 7.03425C11.477 7.01362 11.594 6.89738 11.5945 6.897C12.1831 6.31542 12.5012 5.60514 12.5 4.875C12.5 3.97989 12.0259 3.12145 11.182 2.48851C10.3381 1.85558 9.19348 1.5 8.00001 1.5C6.80653 1.5 5.66194 1.85558 4.81803 2.48851C3.97411 3.12145 3.50001 3.97989 3.50001 4.875C3.49896 5.60559 3.81739 6.31628 4.40651 6.89813H4.40601Z"
              fill="#A7A7A7"/>
    </g>

    <g id="git">
        <g clip-path="url(#clip0_4537_874)">
            <path fill-rule="evenodd" clip-rule="evenodd" d="M10 0C4.475 0 0 4.475 0 10C0 14.425 2.8625 18.1625 6.8375 19.4875C7.3375 19.575 7.525 19.275 7.525 19.0125C7.525 18.775 7.5125 17.9875 7.5125 17.15C5 17.6125 4.35 16.5375 4.15 15.975C4.0375 15.6875 3.55 14.8 3.125 14.5625C2.775 14.375 2.275 13.9125 3.1125 13.9C3.9 13.8875 4.4625 14.625 4.65 14.925C5.55 16.4375 6.9875 16.0125 7.5625 15.75C7.65 15.1 7.9125 14.6625 8.2 14.4125C5.975 14.1625 3.65 13.3 3.65 9.475C3.65 8.3875 4.0375 7.4875 4.675 6.7875C4.575 6.5375 4.225 5.5125 4.775 4.1375C4.775 4.1375 5.6125 3.875 7.525 5.1625C8.325 4.9375 9.175 4.825 10.025 4.825C10.875 4.825 11.725 4.9375 12.525 5.1625C14.4375 3.8625 15.275 4.1375 15.275 4.1375C15.825 5.5125 15.475 6.5375 15.375 6.7875C16.0125 7.4875 16.4 8.375 16.4 9.475C16.4 13.3125 14.0625 14.1625 11.8375 14.4125C12.2 14.725 12.5125 15.325 12.5125 16.2625C12.5125 17.6 12.5 18.675 12.5 19.0125C12.5 19.275 12.6875 19.5875 13.1875 19.4875C15.1726 18.8173 16.8976 17.5414 18.1197 15.8395C19.3418 14.1375 19.9994 12.0952 20 10C20 4.475 15.525 0 10 0Z" fill="black"/>
        </g>
        <defs>
            <clipPath id="clip0_4537_874">
                <rect width="20" height="20" fill="white"/>
            </clipPath>
        </defs>
    </g>

    <g id="date-about">
        <path d="M5.33341 6.5C5.1566 6.5 4.98703 6.44732 4.86201 6.35355C4.73699 6.25979 4.66675 6.13261 4.66675 6C4.66675 5.86739 4.73699 5.74021 4.86201 5.64645C4.98703 5.55268 5.1566 5.5 5.33341 5.5C5.51023 5.5 5.67979 5.55268 5.80482 5.64645C5.92984 5.74021 6.00008 5.86739 6.00008 6C6.00008 6.13261 5.92984 6.25979 5.80482 6.35355C5.67979 6.44732 5.51023 6.5 5.33341 6.5ZM5.33341 8.5C5.1566 8.5 4.98703 8.44732 4.86201 8.35355C4.73699 8.25979 4.66675 8.13261 4.66675 8C4.66675 7.86739 4.73699 7.74021 4.86201 7.64645C4.98703 7.55268 5.1566 7.5 5.33341 7.5C5.51023 7.5 5.67979 7.55268 5.80482 7.64645C5.92984 7.74021 6.00008 7.86739 6.00008 8C6.00008 8.13261 5.92984 8.25979 5.80482 8.35355C5.67979 8.44732 5.51023 8.5 5.33341 8.5ZM7.33341 8C7.33341 8.13261 7.40365 8.25979 7.52868 8.35355C7.6537 8.44732 7.82327 8.5 8.00008 8.5C8.17689 8.5 8.34646 8.44732 8.47149 8.35355C8.59651 8.25979 8.66675 8.13261 8.66675 8C8.66675 7.86739 8.59651 7.74021 8.47149 7.64645C8.34646 7.55268 8.17689 7.5 8.00008 7.5C7.82327 7.5 7.6537 7.55268 7.52868 7.64645C7.40365 7.74021 7.33341 7.86739 7.33341 8ZM10.6667 8.5C10.4899 8.5 10.3204 8.44732 10.1953 8.35355C10.0703 8.25979 10.0001 8.13261 10.0001 8C10.0001 7.86739 10.0703 7.74021 10.1953 7.64645C10.3204 7.55268 10.4899 7.5 10.6667 7.5C10.8436 7.5 11.0131 7.55268 11.1382 7.64645C11.2632 7.74021 11.3334 7.86739 11.3334 8C11.3334 8.13261 11.2632 8.25979 11.1382 8.35355C11.0131 8.44732 10.8436 8.5 10.6667 8.5ZM7.33341 6C7.33341 6.13261 7.40365 6.25979 7.52868 6.35355C7.6537 6.44732 7.82327 6.5 8.00008 6.5C8.17689 6.5 8.34646 6.44732 8.47149 6.35355C8.59651 6.25979 8.66675 6.13261 8.66675 6C8.66675 5.86739 8.59651 5.74021 8.47149 5.64645C8.34646 5.55268 8.17689 5.5 8.00008 5.5C7.82327 5.5 7.6537 5.55268 7.52868 5.64645C7.40365 5.74021 7.33341 5.86739 7.33341 6ZM10.6667 6.5C10.4899 6.5 10.3204 6.44732 10.1953 6.35355C10.0703 6.25979 10.0001 6.13261 10.0001 6C10.0001 5.86739 10.0703 5.74021 10.1953 5.64645C10.3204 5.55268 10.4899 5.5 10.6667 5.5C10.8436 5.5 11.0131 5.55268 11.1382 5.64645C11.2632 5.74021 11.3334 5.86739 11.3334 6C11.3334 6.13261 11.2632 6.25979 11.1382 6.35355C11.0131 6.44732 10.8436 6.5 10.6667 6.5ZM5.33341 3.5C5.1566 3.5 4.98703 3.55268 4.86201 3.64645C4.73699 3.74021 4.66675 3.86739 4.66675 4C4.66675 4.13261 4.73699 4.25979 4.86201 4.35355C4.98703 4.44732 5.1566 4.5 5.33341 4.5H10.6667C10.8436 4.5 11.0131 4.44732 11.1382 4.35355C11.2632 4.25979 11.3334 4.13261 11.3334 4C11.3334 3.86739 11.2632 3.74021 11.1382 3.64645C11.0131 3.55268 10.8436 3.5 10.6667 3.5H5.33341Z"
              fill="#A7A7A7"/>
        <path fill-rule="evenodd" clip-rule="evenodd"
              d="M4 1.5C3.46957 1.5 2.96086 1.65804 2.58579 1.93934C2.21071 2.22064 2 2.60218 2 3V9C2 9.39782 2.21071 9.77936 2.58579 10.0607C2.96086 10.342 3.46957 10.5 4 10.5H12C12.5304 10.5 13.0391 10.342 13.4142 10.0607C13.7893 9.77936 14 9.39782 14 9V3C14 2.60218 13.7893 2.22064 13.4142 1.93934C13.0391 1.65804 12.5304 1.5 12 1.5H4ZM12 2.5H4C3.82319 2.5 3.65362 2.55268 3.5286 2.64645C3.40357 2.74021 3.33333 2.86739 3.33333 3V9C3.33333 9.13261 3.40357 9.25979 3.5286 9.35355C3.65362 9.44732 3.82319 9.5 4 9.5H12C12.1768 9.5 12.3464 9.44732 12.4714 9.35355C12.5964 9.25979 12.6667 9.13261 12.6667 9V3C12.6667 2.86739 12.5964 2.74021 12.4714 2.64645C12.3464 2.55268 12.1768 2.5 12 2.5Z"
              fill="#A7A7A7"/>
    </g>

    <g id="instagram">
        <path d="M 16 3 C 8.83 3 3 8.83 3 16 L 3 34 C 3 41.17 8.83 47 16 47 L 34 47 C 41.17 47 47 41.17 47 34 L 47 16 C 47 8.83 41.17 3 34 3 L 16 3 z M 37 11 C 38.1 11 39 11.9 39 13 C 39 14.1 38.1 15 37 15 C 35.9 15 35 14.1 35 13 C 35 11.9 35.9 11 37 11 z M 25 14 C 31.07 14 36 18.93 36 25 C 36 31.07 31.07 36 25 36 C 18.93 36 14 31.07 14 25 C 14 18.93 18.93 14 25 14 z M 25 16 C 20.04 16 16 20.04 16 25 C 16 29.96 20.04 34 25 34 C 29.96 34 34 29.96 34 25 C 34 20.04 29.96 16 25 16 z"></path>
    </g>

    <g id="telegram">
        <path d="M25,2c12.703,0,23,10.297,23,23S37.703,48,25,48S2,37.703,2,25S12.297,2,25,2z M32.934,34.375	c0.423-1.298,2.405-14.234,2.65-16.783c0.074-0.772-0.17-1.285-0.648-1.514c-0.578-0.278-1.434-0.139-2.427,0.219	c-1.362,0.491-18.774,7.884-19.78,8.312c-0.954,0.405-1.856,0.847-1.856,1.487c0,0.45,0.267,0.703,1.003,0.966	c0.766,0.273,2.695,0.858,3.834,1.172c1.097,0.303,2.346,0.04,3.046-0.395c0.742-0.461,9.305-6.191,9.92-6.693	c0.614-0.502,1.104,0.141,0.602,0.644c-0.502,0.502-6.38,6.207-7.155,6.997c-0.941,0.959-0.273,1.953,0.358,2.351	c0.721,0.454,5.906,3.932,6.687,4.49c0.781,0.558,1.573,0.811,2.298,0.811C32.191,36.439,32.573,35.484,32.934,34.375z"></path>
    </g>

    <g id="github">
        <path d="M17.791,46.836C18.502,46.53,19,45.823,19,45v-5.4c0-0.197,0.016-0.402,0.041-0.61C19.027,38.994,19.014,38.997,19,39 c0,0-3,0-3.6,0c-1.5,0-2.8-0.6-3.4-1.8c-0.7-1.3-1-3.5-2.8-4.7C8.9,32.3,9.1,32,9.7,32c0.6,0.1,1.9,0.9,2.7,2c0.9,1.1,1.8,2,3.4,2 c2.487,0,3.82-0.125,4.622-0.555C21.356,34.056,22.649,33,24,33v-0.025c-5.668-0.182-9.289-2.066-10.975-4.975 c-3.665,0.042-6.856,0.405-8.677,0.707c-0.058-0.327-0.108-0.656-0.151-0.987c1.797-0.296,4.843-0.647,8.345-0.714 c-0.112-0.276-0.209-0.559-0.291-0.849c-3.511-0.178-6.541-0.039-8.187,0.097c-0.02-0.332-0.047-0.663-0.051-0.999 c1.649-0.135,4.597-0.27,8.018-0.111c-0.079-0.5-0.13-1.011-0.13-1.543c0-1.7,0.6-3.5,1.7-5c-0.5-1.7-1.2-5.3,0.2-6.6 c2.7,0,4.6,1.3,5.5,2.1C21,13.4,22.9,13,25,13s4,0.4,5.6,1.1c0.9-0.8,2.8-2.1,5.5-2.1c1.5,1.4,0.7,5,0.2,6.6c1.1,1.5,1.7,3.2,1.6,5 c0,0.484-0.045,0.951-0.11,1.409c3.499-0.172,6.527-0.034,8.204,0.102c-0.002,0.337-0.033,0.666-0.051,0.999 c-1.671-0.138-4.775-0.28-8.359-0.089c-0.089,0.336-0.197,0.663-0.325,0.98c3.546,0.046,6.665,0.389,8.548,0.689 c-0.043,0.332-0.093,0.661-0.151,0.987c-1.912-0.306-5.171-0.664-8.879-0.682C35.112,30.873,31.557,32.75,26,32.969V33 c2.6,0,5,3.9,5,6.6V45c0,0.823,0.498,1.53,1.209,1.836C41.37,43.804,48,35.164,48,25C48,12.318,37.683,2,25,2S2,12.318,2,25 C2,35.164,8.63,43.804,17.791,46.836z"></path>
    </g>
</svg>
